<?xml version="1.0" encoding="UTF-8" standalone="no"?>
<!-- Created with Inkscape (http://www.inkscape.org/) -->

<svg
   width="400mm"
   height="400mm"
   viewBox="0 0 400 400"
   version="1.1"
   id="svg45436"
   xml:space="preserve"
   inkscape:version="1.2.1 (9c6d41e4, 2022-07-14)"
   sodipodi:docname="inkscape_icon.svg"
   inkscape:export-filename="icon.svg"
   inkscape:export-xdpi="12.7"
   inkscape:export-ydpi="12.7"
   xmlns:inkscape="http://www.inkscape.org/namespaces/inkscape"
   xmlns:sodipodi="http://sodipodi.sourceforge.net/DTD/sodipodi-0.dtd"
   xmlns="http://www.w3.org/2000/svg"
   xmlns:svg="http://www.w3.org/2000/svg"><sodipodi:namedview
     id="namedview45438"
     pagecolor="#ffffff"
     bordercolor="#999999"
     borderopacity="1"
     inkscape:showpageshadow="0"
     inkscape:pageopacity="0"
     inkscape:pagecheckerboard="0"
     inkscape:deskcolor="#d1d1d1"
     inkscape:document-units="mm"
     showgrid="false"
     inkscape:zoom="0.15808993"
     inkscape:cx="325.76396"
     inkscape:cy="1031.0587"
     inkscape:window-width="1154"
     inkscape:window-height="908"
     inkscape:window-x="615"
     inkscape:window-y="76"
     inkscape:window-maximized="0"
     inkscape:current-layer="layer2" /><defs
     id="defs45433"><inkscape:path-effect
       effect="skeletal"
       id="path-effect48296"
       is_visible="true"
       lpeversion="1"
       pattern="m 388.04557,-206.70936 a 56.126598,56.126598 0 0 0 -40.40477,17.21187 56.126598,56.126598 0 0 0 40.40477,17.21239 56.126598,56.126598 0 0 0 40.42337,-17.23048 56.126598,56.126598 0 0 0 -40.42337,-17.19378 z"
       copytype="single_stretched"
       prop_scale="0.15007602"
       scale_y_rel="false"
       spacing="0"
       normal_offset="0"
       tang_offset="0"
       prop_units="false"
       vertical_pattern="false"
       hide_knot="false"
       fuse_tolerance="0" /><inkscape:path-effect
       effect="skeletal"
       id="path-effect48215"
       is_visible="true"
       lpeversion="1"
       pattern="m 437.78724,-188.58539 a 56.126598,56.126598 0 0 0 -40.40477,17.21187 56.126598,56.126598 0 0 0 40.40477,17.21239 56.126598,56.126598 0 0 0 40.42337,-17.23048 56.126598,56.126598 0 0 0 -40.42337,-17.19378 z"
       copytype="single_stretched"
       prop_scale="0.23265293"
       scale_y_rel="false"
       spacing="0"
       normal_offset="0"
       tang_offset="0"
       prop_units="false"
       vertical_pattern="false"
       hide_knot="false"
       fuse_tolerance="0" /><inkscape:path-effect
       effect="skeletal"
       id="path-effect48203"
       is_visible="true"
       lpeversion="1"
       pattern="m 437.78724,-188.58539 a 56.126598,56.126598 0 0 0 -40.40477,17.21187 56.126598,56.126598 0 0 0 40.40477,17.21239 56.126598,56.126598 0 0 0 40.42337,-17.23048 56.126598,56.126598 0 0 0 -40.42337,-17.19378 z"
       copytype="single_stretched"
       prop_scale="0.23042573"
       scale_y_rel="false"
       spacing="0"
       normal_offset="0"
       tang_offset="0"
       prop_units="false"
       vertical_pattern="false"
       hide_knot="false"
       fuse_tolerance="0" /><inkscape:path-effect
       effect="skeletal"
       id="path-effect48191"
       is_visible="true"
       lpeversion="1"
       pattern="m 437.78724,-188.58539 a 56.126598,56.126598 0 0 0 -40.40477,17.21187 56.126598,56.126598 0 0 0 40.40477,17.21239 56.126598,56.126598 0 0 0 40.42337,-17.23048 56.126598,56.126598 0 0 0 -40.42337,-17.19378 z"
       copytype="single_stretched"
       prop_scale="0.21246216"
       scale_y_rel="false"
       spacing="0"
       normal_offset="0"
       tang_offset="0"
       prop_units="false"
       vertical_pattern="false"
       hide_knot="false"
       fuse_tolerance="0" /><inkscape:path-effect
       effect="skeletal"
       id="path-effect48179"
       is_visible="true"
       lpeversion="1"
       pattern="m 437.78724,-188.58539 a 56.126598,56.126598 0 0 0 -40.40477,17.21187 56.126598,56.126598 0 0 0 40.40477,17.21239 56.126598,56.126598 0 0 0 40.42337,-17.23048 56.126598,56.126598 0 0 0 -40.42337,-17.19378 z"
       copytype="single_stretched"
       prop_scale="0.23986907"
       scale_y_rel="false"
       spacing="0"
       normal_offset="0"
       tang_offset="0"
       prop_units="false"
       vertical_pattern="false"
       hide_knot="false"
       fuse_tolerance="0" /><inkscape:path-effect
       effect="skeletal"
       id="path-effect48167"
       is_visible="true"
       lpeversion="1"
       pattern="m 437.78724,-188.58539 a 56.126598,56.126598 0 0 0 -40.40477,17.21187 56.126598,56.126598 0 0 0 40.40477,17.21239 56.126598,56.126598 0 0 0 40.42337,-17.23048 56.126598,56.126598 0 0 0 -40.42337,-17.19378 z"
       copytype="single_stretched"
       prop_scale="0.2405932"
       scale_y_rel="false"
       spacing="0"
       normal_offset="0"
       tang_offset="0"
       prop_units="false"
       vertical_pattern="false"
       hide_knot="false"
       fuse_tolerance="0" /><inkscape:path-effect
       effect="skeletal"
       id="path-effect48125"
       is_visible="true"
       lpeversion="1"
       pattern="m 388.04557,-206.70936 a 56.126598,56.126598 0 0 0 -40.40477,17.21187 56.126598,56.126598 0 0 0 40.40477,17.21239 56.126598,56.126598 0 0 0 40.42337,-17.23048 56.126598,56.126598 0 0 0 -40.42337,-17.19378 z"
       copytype="single_stretched"
       prop_scale="0.24850074"
       scale_y_rel="false"
       spacing="0"
       normal_offset="0"
       tang_offset="0"
       prop_units="false"
       vertical_pattern="false"
       hide_knot="false"
       fuse_tolerance="0" /><inkscape:path-effect
       effect="skeletal"
       id="path-effect48113"
       is_visible="true"
       lpeversion="1"
       pattern="m 388.04557,-206.70936 a 56.126598,56.126598 0 0 0 -40.40477,17.21187 56.126598,56.126598 0 0 0 40.40477,17.21239 56.126598,56.126598 0 0 0 40.42337,-17.23048 56.126598,56.126598 0 0 0 -40.42337,-17.19378 z"
       copytype="single_stretched"
       prop_scale="0.24802484"
       scale_y_rel="false"
       spacing="0"
       normal_offset="0"
       tang_offset="0"
       prop_units="false"
       vertical_pattern="false"
       hide_knot="false"
       fuse_tolerance="0" /><inkscape:path-effect
       effect="skeletal"
       id="path-effect48101"
       is_visible="true"
       lpeversion="1"
       pattern="m 388.04557,-206.70936 a 56.126598,56.126598 0 0 0 -40.40477,17.21187 56.126598,56.126598 0 0 0 40.40477,17.21239 56.126598,56.126598 0 0 0 40.42337,-17.23048 56.126598,56.126598 0 0 0 -40.42337,-17.19378 z"
       copytype="single_stretched"
       prop_scale="0.30786632"
       scale_y_rel="false"
       spacing="0"
       normal_offset="0"
       tang_offset="0"
       prop_units="false"
       vertical_pattern="false"
       hide_knot="false"
       fuse_tolerance="0" /><inkscape:path-effect
       effect="skeletal"
       id="path-effect48089"
       is_visible="true"
       lpeversion="1"
       pattern="m 388.04557,-206.70936 a 56.126598,56.126598 0 0 0 -40.40477,17.21187 56.126598,56.126598 0 0 0 40.40477,17.21239 56.126598,56.126598 0 0 0 40.42337,-17.23048 56.126598,56.126598 0 0 0 -40.42337,-17.19378 z"
       copytype="single_stretched"
       prop_scale="0.18716949"
       scale_y_rel="false"
       spacing="0"
       normal_offset="0"
       tang_offset="0"
       prop_units="false"
       vertical_pattern="false"
       hide_knot="false"
       fuse_tolerance="0" /><inkscape:path-effect
       effect="skeletal"
       id="path-effect48077"
       is_visible="true"
       lpeversion="1"
       pattern="m 437.78724,-188.58539 a 56.126598,56.126598 0 0 0 -40.40477,17.21187 56.126598,56.126598 0 0 0 40.40477,17.21239 56.126598,56.126598 0 0 0 40.42337,-17.23048 56.126598,56.126598 0 0 0 -40.42337,-17.19378 z"
       copytype="single_stretched"
       prop_scale="0.18653719"
       scale_y_rel="false"
       spacing="0"
       normal_offset="0"
       tang_offset="0"
       prop_units="false"
       vertical_pattern="false"
       hide_knot="false"
       fuse_tolerance="0" /><inkscape:path-effect
       effect="skeletal"
       id="path-effect48065"
       is_visible="true"
       lpeversion="1"
       pattern="m 437.78724,-188.58539 a 56.126598,56.126598 0 0 0 -40.40477,17.21187 56.126598,56.126598 0 0 0 40.40477,17.21239 56.126598,56.126598 0 0 0 40.42337,-17.23048 56.126598,56.126598 0 0 0 -40.42337,-17.19378 z"
       copytype="single_stretched"
       prop_scale="0.22576256"
       scale_y_rel="false"
       spacing="0"
       normal_offset="0"
       tang_offset="0"
       prop_units="false"
       vertical_pattern="false"
       hide_knot="false"
       fuse_tolerance="0" /><inkscape:path-effect
       effect="skeletal"
       id="path-effect48053"
       is_visible="true"
       lpeversion="1"
       pattern="m 437.78724,-188.58539 a 56.126598,56.126598 0 0 0 -40.40477,17.21187 56.126598,56.126598 0 0 0 40.40477,17.21239 56.126598,56.126598 0 0 0 40.42337,-17.23048 56.126598,56.126598 0 0 0 -40.42337,-17.19378 z"
       copytype="single_stretched"
       prop_scale="0.22341668"
       scale_y_rel="false"
       spacing="0"
       normal_offset="0"
       tang_offset="0"
       prop_units="false"
       vertical_pattern="false"
       hide_knot="false"
       fuse_tolerance="0" /><inkscape:path-effect
       effect="skeletal"
       id="path-effect48041"
       is_visible="true"
       lpeversion="1"
       pattern="m 437.78724,-188.58539 a 56.126598,56.126598 0 0 0 -40.40477,17.21187 56.126598,56.126598 0 0 0 40.40477,17.21239 56.126598,56.126598 0 0 0 40.42337,-17.23048 56.126598,56.126598 0 0 0 -40.42337,-17.19378 z"
       copytype="single_stretched"
       prop_scale="0.23989843"
       scale_y_rel="false"
       spacing="0"
       normal_offset="0"
       tang_offset="0"
       prop_units="false"
       vertical_pattern="false"
       hide_knot="false"
       fuse_tolerance="0" /><inkscape:path-effect
       effect="skeletal"
       id="path-effect48029"
       is_visible="true"
       lpeversion="1"
       pattern="m 437.78724,-188.58539 a 56.126598,56.126598 0 0 0 -40.40477,17.21187 56.126598,56.126598 0 0 0 40.40477,17.21239 56.126598,56.126598 0 0 0 40.42337,-17.23048 56.126598,56.126598 0 0 0 -40.42337,-17.19378 z"
       copytype="single_stretched"
       prop_scale="0.28008818"
       scale_y_rel="false"
       spacing="0"
       normal_offset="0"
       tang_offset="0"
       prop_units="false"
       vertical_pattern="false"
       hide_knot="false"
       fuse_tolerance="0" /><inkscape:path-effect
       effect="skeletal"
       id="path-effect48003"
       is_visible="true"
       lpeversion="1"
       pattern="m 437.78724,-188.58539 a 56.126598,56.126598 0 0 0 -40.40477,17.21187 56.126598,56.126598 0 0 0 40.40477,17.21239 56.126598,56.126598 0 0 0 40.42337,-17.23048 56.126598,56.126598 0 0 0 -40.42337,-17.19378 z"
       copytype="single_stretched"
       prop_scale="0.15863104"
       scale_y_rel="false"
       spacing="0"
       normal_offset="0"
       tang_offset="0"
       prop_units="false"
       vertical_pattern="false"
       hide_knot="false"
       fuse_tolerance="0" /><inkscape:path-effect
       effect="skeletal"
       id="path-effect47991"
       is_visible="true"
       lpeversion="1"
       pattern="m 437.78724,-188.58539 a 56.126598,56.126598 0 0 0 -40.40477,17.21187 56.126598,56.126598 0 0 0 40.40477,17.21239 56.126598,56.126598 0 0 0 40.42337,-17.23048 56.126598,56.126598 0 0 0 -40.42337,-17.19378 z"
       copytype="single_stretched"
       prop_scale="0.13319914"
       scale_y_rel="false"
       spacing="0"
       normal_offset="0"
       tang_offset="0"
       prop_units="false"
       vertical_pattern="false"
       hide_knot="false"
       fuse_tolerance="0" /><inkscape:path-effect
       effect="skeletal"
       id="path-effect47979"
       is_visible="true"
       lpeversion="1"
       pattern="m 437.78724,-188.58539 a 56.126598,56.126598 0 0 0 -40.40477,17.21187 56.126598,56.126598 0 0 0 40.40477,17.21239 56.126598,56.126598 0 0 0 40.42337,-17.23048 56.126598,56.126598 0 0 0 -40.42337,-17.19378 z"
       copytype="single_stretched"
       prop_scale="0.16154517"
       scale_y_rel="false"
       spacing="0"
       normal_offset="0"
       tang_offset="0"
       prop_units="false"
       vertical_pattern="false"
       hide_knot="false"
       fuse_tolerance="0" /><inkscape:path-effect
       effect="skeletal"
       id="path-effect47967"
       is_visible="true"
       lpeversion="1"
       pattern="m 437.78724,-188.58539 a 56.126598,56.126598 0 0 0 -40.40477,17.21187 56.126598,56.126598 0 0 0 40.40477,17.21239 56.126598,56.126598 0 0 0 40.42337,-17.23048 56.126598,56.126598 0 0 0 -40.42337,-17.19378 z"
       copytype="single_stretched"
       prop_scale="0.17637802"
       scale_y_rel="false"
       spacing="0"
       normal_offset="0"
       tang_offset="0"
       prop_units="false"
       vertical_pattern="false"
       hide_knot="false"
       fuse_tolerance="0" /><inkscape:path-effect
       effect="skeletal"
       id="path-effect47955"
       is_visible="true"
       lpeversion="1"
       pattern="m 437.78724,-188.58539 a 56.126598,56.126598 0 0 0 -40.40477,17.21187 56.126598,56.126598 0 0 0 40.40477,17.21239 56.126598,56.126598 0 0 0 40.42337,-17.23048 56.126598,56.126598 0 0 0 -40.42337,-17.19378 z"
       copytype="single_stretched"
       prop_scale="0.20002125"
       scale_y_rel="false"
       spacing="0"
       normal_offset="0"
       tang_offset="0"
       prop_units="false"
       vertical_pattern="false"
       hide_knot="false"
       fuse_tolerance="0" /><inkscape:path-effect
       effect="skeletal"
       id="path-effect47901"
       is_visible="true"
       lpeversion="1"
       pattern="m 437.78724,-188.58539 a 56.126598,56.126598 0 0 0 -40.40477,17.21187 56.126598,56.126598 0 0 0 40.40477,17.21239 56.126598,56.126598 0 0 0 40.42337,-17.23048 56.126598,56.126598 0 0 0 -40.42337,-17.19378 z"
       copytype="single_stretched"
       prop_scale="0.2150997"
       scale_y_rel="false"
       spacing="0"
       normal_offset="0"
       tang_offset="0"
       prop_units="false"
       vertical_pattern="false"
       hide_knot="false"
       fuse_tolerance="0" /><inkscape:path-effect
       effect="skeletal"
       id="path-effect47889"
       is_visible="true"
       lpeversion="1"
       pattern="m 437.78724,-188.58539 a 56.126598,56.126598 0 0 0 -40.40477,17.21187 56.126598,56.126598 0 0 0 40.40477,17.21239 56.126598,56.126598 0 0 0 40.42337,-17.23048 56.126598,56.126598 0 0 0 -40.42337,-17.19378 z"
       copytype="single_stretched"
       prop_scale="0.26876484"
       scale_y_rel="false"
       spacing="0"
       normal_offset="0"
       tang_offset="0"
       prop_units="false"
       vertical_pattern="false"
       hide_knot="false"
       fuse_tolerance="0" /><inkscape:path-effect
       effect="skeletal"
       id="path-effect47877"
       is_visible="true"
       lpeversion="1"
       pattern="m 437.78724,-188.58539 a 56.126598,56.126598 0 0 0 -40.40477,17.21187 56.126598,56.126598 0 0 0 40.40477,17.21239 56.126598,56.126598 0 0 0 40.42337,-17.23048 56.126598,56.126598 0 0 0 -40.42337,-17.19378 z"
       copytype="single_stretched"
       prop_scale="0.32310229"
       scale_y_rel="false"
       spacing="0"
       normal_offset="0"
       tang_offset="0"
       prop_units="false"
       vertical_pattern="false"
       hide_knot="false"
       fuse_tolerance="0" /><inkscape:path-effect
       effect="skeletal"
       id="path-effect47865"
       is_visible="true"
       lpeversion="1"
       pattern="m 437.78724,-188.58539 a 56.126598,56.126598 0 0 0 -40.40477,17.21187 56.126598,56.126598 0 0 0 40.40477,17.21239 56.126598,56.126598 0 0 0 40.42337,-17.23048 56.126598,56.126598 0 0 0 -40.42337,-17.19378 z"
       copytype="single_stretched"
       prop_scale="0.30344824"
       scale_y_rel="false"
       spacing="0"
       normal_offset="0"
       tang_offset="0"
       prop_units="false"
       vertical_pattern="false"
       hide_knot="false"
       fuse_tolerance="0" /><inkscape:path-effect
       effect="skeletal"
       id="path-effect47853"
       is_visible="true"
       lpeversion="1"
       pattern="m 437.78724,-188.58539 a 56.126598,56.126598 0 0 0 -40.40477,17.21187 56.126598,56.126598 0 0 0 40.40477,17.21239 56.126598,56.126598 0 0 0 40.42337,-17.23048 56.126598,56.126598 0 0 0 -40.42337,-17.19378 z"
       copytype="single_stretched"
       prop_scale="0.19191784"
       scale_y_rel="false"
       spacing="0"
       normal_offset="0"
       tang_offset="0"
       prop_units="false"
       vertical_pattern="false"
       hide_knot="false"
       fuse_tolerance="0" /><inkscape:path-effect
       effect="skeletal"
       id="path-effect47841"
       is_visible="true"
       lpeversion="1"
       pattern="m 437.78724,-188.58539 a 56.126598,56.126598 0 0 0 -40.40477,17.21187 56.126598,56.126598 0 0 0 40.40477,17.21239 56.126598,56.126598 0 0 0 40.42337,-17.23048 56.126598,56.126598 0 0 0 -40.42337,-17.19378 z"
       copytype="single_stretched"
       prop_scale="0.22319165"
       scale_y_rel="false"
       spacing="0"
       normal_offset="0"
       tang_offset="0"
       prop_units="false"
       vertical_pattern="false"
       hide_knot="false"
       fuse_tolerance="0" /><inkscape:path-effect
       effect="skeletal"
       id="path-effect47829"
       is_visible="true"
       lpeversion="1"
       pattern="m 437.78724,-188.58539 a 56.126598,56.126598 0 0 0 -40.40477,17.21187 56.126598,56.126598 0 0 0 40.40477,17.21239 56.126598,56.126598 0 0 0 40.42337,-17.23048 56.126598,56.126598 0 0 0 -40.42337,-17.19378 z"
       copytype="single_stretched"
       prop_scale="0.22502813"
       scale_y_rel="false"
       spacing="0"
       normal_offset="0"
       tang_offset="0"
       prop_units="false"
       vertical_pattern="false"
       hide_knot="false"
       fuse_tolerance="0" /><inkscape:path-effect
       effect="skeletal"
       id="path-effect47817"
       is_visible="true"
       lpeversion="1"
       pattern="m 437.78724,-188.58539 a 56.126598,56.126598 0 0 0 -40.40477,17.21187 56.126598,56.126598 0 0 0 40.40477,17.21239 56.126598,56.126598 0 0 0 40.42337,-17.23048 56.126598,56.126598 0 0 0 -40.42337,-17.19378 z"
       copytype="single_stretched"
       prop_scale="0.22520933"
       scale_y_rel="false"
       spacing="0"
       normal_offset="0"
       tang_offset="0"
       prop_units="false"
       vertical_pattern="false"
       hide_knot="false"
       fuse_tolerance="0" /><inkscape:path-effect
       effect="skeletal"
       id="path-effect47805"
       is_visible="true"
       lpeversion="1"
       pattern="m 437.78724,-188.58539 a 56.126598,56.126598 0 0 0 -40.40477,17.21187 56.126598,56.126598 0 0 0 40.40477,17.21239 56.126598,56.126598 0 0 0 40.42337,-17.23048 56.126598,56.126598 0 0 0 -40.42337,-17.19378 z"
       copytype="single_stretched"
       prop_scale="0.28338215"
       scale_y_rel="false"
       spacing="0"
       normal_offset="0"
       tang_offset="0"
       prop_units="false"
       vertical_pattern="false"
       hide_knot="false"
       fuse_tolerance="0" /><inkscape:path-effect
       effect="skeletal"
       id="path-effect47793"
       is_visible="true"
       lpeversion="1"
       pattern="m 437.78724,-188.58539 a 56.126598,56.126598 0 0 0 -40.40477,17.21187 56.126598,56.126598 0 0 0 40.40477,17.21239 56.126598,56.126598 0 0 0 40.42337,-17.23048 56.126598,56.126598 0 0 0 -40.42337,-17.19378 z"
       copytype="single_stretched"
       prop_scale="0.22124855"
       scale_y_rel="false"
       spacing="0"
       normal_offset="0"
       tang_offset="0"
       prop_units="false"
       vertical_pattern="false"
       hide_knot="false"
       fuse_tolerance="0" /></defs><g
     inkscape:groupmode="layer"
     id="layer3"
     inkscape:label="IconBg"><rect
       style="display:inline;opacity:1;fill:#253237;fill-opacity:1;stroke:none;stroke-width:3.70417;stroke-linecap:round;stroke-dasharray:none;stroke-opacity:1;paint-order:markers stroke fill;stop-color:#000000"
       id="rect50630"
       width="400"
       height="400"
       x="0"
       y="0"
       ry="0"
       inkscape:export-filename="./icon.svg"
       inkscape:export-xdpi="12.7"
       inkscape:export-ydpi="12.7" /><path
       id="path49816"
       style="display:inline;opacity:1;fill:none;fill-opacity:1;stroke:#52718e;stroke-width:4.41577;stroke-linecap:round;stroke-dasharray:none;stroke-opacity:1;paint-order:markers stroke fill;stop-color:#000000"
       d="m 2.2078821,398.8821 c 131.8996579,0.0118 395.5842379,0 395.5842379,0 M 2.2078821,386.05083 c 35.2416549,-3.23526 72.1932669,-2.64976 117.8334779,-0.35087 49.38862,2.48768 82.73464,5.11803 129.77009,6.06368 42.58699,0.85623 76.42676,-0.38012 104.69631,-2.20065 26.74105,-1.72207 43.28436,-3.51216 43.28436,-3.51216 M 2.2078821,373.21956 c 35.2551489,-6.91507 72.4142569,-5.75178 118.1848879,-0.93501 49.66257,5.2263 82.72675,10.76923 129.76015,12.81125 42.45716,1.84335 76.10928,-0.71497 104.34146,-4.52076 26.71309,-3.60102 43.29774,-7.35548 43.29774,-7.35548 M 2.2078821,360.38827 C 37.465378,349.48803 74.81853,351.21445 120.71646,358.68953 c 49.91274,8.12897 82.7434,16.76924 129.76575,20.01595 42.33723,2.92322 75.81324,-1.00607 104.00614,-6.90286 26.69983,-5.58451 43.30377,-11.41435 43.30377,-11.41435 M 2.2078821,347.55702 C 19.006479,340.37803 37.17907,336.85557 57.571234,336.78388 c 20.345319,-0.0715 41.318871,3.27279 63.440606,8.17653 21.88159,4.85052 44.18221,11.02588 66.06731,16.20761 22.35928,5.29404 42.88686,9.25862 63.71602,11.26176 42.22749,4.06102 75.53941,-1.25438 103.69265,-9.2926 26.70097,-7.62358 43.3043,-15.58016 43.3043,-15.58016 M 2.2078821,334.72574 c 16.7938029,-9.19446 35.0005009,-13.73435 55.4478629,-13.87612 20.400158,-0.14144 41.444801,4.07479 63.622645,10.28972 21.93737,6.14752 44.27589,13.99651 66.16545,20.5958 22.36586,6.74286 42.86161,11.80613 63.64417,14.38347 42.12827,5.22446 75.28859,-1.46101 103.4031,-11.64008 26.714,-9.67201 43.30101,-19.75279 43.30101,-19.75279 M 2.2078821,321.89447 C 18.994023,310.70513 37.229708,305.15112 57.726544,304.92779 c 20.449322,-0.22279 41.559102,4.84032 63.789216,12.33753 21.98925,7.41599 44.364,16.90776 66.25918,24.90217 22.3733,8.16896 42.84166,14.31751 63.58257,17.46713 42.03953,6.38392 75.06135,-1.62729 103.13921,-13.89986 26.73525,-11.6857 43.2954,-23.84029 43.2954,-23.84029 M 2.2078821,309.0632 C 18.984251,295.94589 37.244125,289.40577 57.784595,289.09348 c 20.492695,-0.31155 41.661206,5.55663 63.939085,14.28059 22.03669,8.62953 44.44528,19.69812 66.34675,29.03491 22.38117,9.54129 42.82618,16.73764 63.53033,20.44427 41.96142,7.51231 74.85829,-1.75478 102.90255,-16.03092 26.76101,-13.62289 43.28881,-27.75913 43.28881,-27.75913 M 2.2078821,296.23193 C 18.973054,281.29526 37.252631,273.81931 57.830814,273.41438 c 20.530199,-0.40398 41.750602,6.21254 64.071256,16.08379 22.07915,9.7644 44.51863,22.31223 66.42661,32.91138 22.38902,10.8319 42.81438,19.01689 63.4866,23.25317 41.89391,8.58516 74.67993,-1.84515 102.69445,-17.99674 26.78825,-15.4446 43.28239,-31.43405 43.28239,-31.43405 M 2.2078821,283.40066 C 18.961068,266.79023 37.256152,258.44869 57.866075,257.95081 c 20.561809,-0.49672 41.826945,6.79829 64.184925,17.71604 22.11614,10.79968 44.58303,24.70108 66.49733,36.45833 22.39654,12.01601 42.80559,21.11109 63.4507,25.83879 41.83697,9.58058 74.52661,-1.90027 102.51596,-19.76521 26.81484,-17.11525 43.27713,-34.7981 43.27713,-34.7981 M 2.2078821,270.56938 C 18.948859,252.46331 37.255527,243.34379 57.891206,242.75573 c 20.58748,-0.58668 41.889936,7.30546 64.279394,19.1505 22.14736,11.71694 44.63773,26.82179 66.55783,39.61167 22.40333,13.0718 42.79919,22.98158 63.42196,28.15287 41.79057,10.47924 74.39859,-1.92221 102.36792,-21.30865 26.83958,-18.60339 43.27381,-37.79274 43.27381,-37.79274 M 2.2078821,257.73813 C 18.936936,238.34229 37.251525,228.54746 57.90699,227.87471 c 20.607251,-0.67119 41.939431,7.72708 64.35422,20.3644 22.17245,12.50067 44.68205,28.6379 66.60713,42.31662 22.40917,13.98072 42.79471,24.59511 63.39984,30.15389 41.75459,11.26436 74.29599,-1.91314 102.25082,-22.60386 26.86199,-19.88187 43.27312,-40.36763 43.27312,-40.36763 M 2.2078821,244.90683 C 18.925735,224.45036 37.244836,214.09553 57.91417,213.34595 c 20.621172,-0.74785 41.975306,8.05763 64.4091,21.33914 22.19128,13.13796 44.71548,30.11903 66.64452,44.5277 22.41382,14.72719 42.7917,25.92388 63.38381,31.80699 41.72891,11.9218 74.21877,-1.87545 102.16501,-23.63204 26.88202,-20.9281 43.27551,-42.48091 43.27551,-42.48091 M 2.2078821,232.07556 C 18.915639,210.80613 37.236071,200.01681 57.913435,199.2003 c 20.629326,-0.81464 41.997604,8.29295 64.443925,22.06031 22.20365,13.6185 44.73772,31.24112 66.66951,46.20864 22.41711,15.29872 42.78979,26.94556 63.37347,33.08406 41.71336,12.43992 74.16679,-1.81163 102.11051,-24.37889 26.89975,-21.72415 43.28127,-44.09886 43.28127,-44.09886 M 2.2078821,219.24429 C 18.906959,197.42357 37.225769,186.33302 57.905447,185.46121 c 20.631815,-0.8698 42.006425,8.43031 64.458733,22.51755 22.20954,13.93494 44.7486,31.98639 66.68178,47.33253 22.41891,15.68599 42.78878,27.64323 63.36844,33.96378 41.70786,12.80961 74.13984,-1.72444 102.08721,-24.83458 26.91531,-22.25668 43.29051,-45.1962 43.29051,-45.1962 M 2.2078821,206.41303 C 18.899947,184.31202 37.214394,173.05888 57.890802,172.14478 c 20.628813,-0.912 42.002026,8.46843 64.453818,22.70472 22.20895,14.08236 44.74803,32.34322 66.68121,47.88164 22.4192,15.88273 42.7885,28.00549 63.36851,34.43147 41.71218,13.02439 74.13739,-1.61664 102.09458,-24.99361 26.92876,-22.51702 43.3032,-45.75597 43.3032,-45.75597 M 2.2078821,193.58176 C 18.894786,171.47621 37.202325,160.20208 57.870069,159.25973 c 20.620477,-0.9402 41.984761,8.4074 64.429561,22.6198 22.20201,14.05867 44.73623,32.3063 66.66798,47.84755 22.41789,15.88576 42.78877,28.02639 63.37339,34.47922 41.72621,13.08031 74.159,-1.49123 102.13203,-24.85504 26.93995,-22.50097 43.31909,-45.7695 43.31909,-45.7695 M 2.2078821,180.75047 c 16.6837219,-21.83419 34.9819919,-32.98725 55.6358839,-33.9431 20.607031,-0.95366 41.954998,8.24879 64.386604,22.26493 22.18884,13.86447 44.71347,31.87655 66.64237,47.23113 22.41508,15.69501 42.78962,27.70534 63.38304,34.10584 41.74966,12.97594 74.20387,-1.35136 102.19855,-24.42233 26.94864,-22.20893 43.33779,-45.23647 43.33779,-45.23647 M 2.2078821,167.91921 C 18.890455,146.62769 37.177271,135.73594 57.812365,134.78172 c 20.5887,-0.95208 41.91332,7.99545 64.325715,21.64633 22.16972,13.50304 44.68017,31.06118 66.60492,46.04253 22.41087,15.31349 42.79118,27.04732 63.39742,33.31684 41.78238,12.71245 74.27121,-1.20029 102.29296,-23.70339 26.9543,-21.64595 43.35874,-44.16482 43.35874,-44.16482 M 2.2078821,155.08795 c 16.6834519,-20.48663 34.9567919,-30.98118 55.5684149,-31.9186 20.565781,-0.93535 41.860322,7.65182 64.247843,20.77445 22.14499,12.98042 44.637,29.87354 66.55648,44.30111 22.4053,14.74732 42.79347,26.06272 63.41641,32.12449 41.8242,12.29353 74.3601,-1.04144 102.41387,-22.7106 26.95634,-20.82148 43.38122,-42.57085 43.38122,-42.57085 M 2.2078821,142.25667 c 16.6862869,-19.43323 34.9442829,-29.40141 55.5280639,-30.3072 20.538576,-0.90379 41.796747,7.22365 64.154184,19.66385 22.11503,12.30528 44.58466,28.33338 66.49788,42.03554 22.39868,14.00572 42.79681,24.76739 63.44032,30.54783 41.8748,11.72546 74.46925,-0.87845 102.55952,-21.46077 26.95403,-19.74973 43.40427,-40.47925 43.40427,-40.47925 M 2.2078821,129.4254 C 18.898825,111.27569 37.139748,101.95389 57.691656,101.09398 c 20.507423,-0.85806 41.72341,6.7181 64.046014,18.33317 22.08035,11.48903 44.52413,26.46659 66.43037,39.28381 22.39125,13.10097 42.80153,23.18259 63.46917,28.61249 41.93407,11.0171 74.59756,-0.71501 102.72809,-19.97508 26.94669,-18.4495 43.42682,-37.92297 43.42682,-37.92297 M 2.2078821,116.59412 C 18.9051,99.935086 37.127354,91.368114 57.643721,90.567305 c 20.472692,-0.799114 41.641306,6.143818 63.924879,16.805335 22.04149,10.54569 44.45646,24.30529 66.35529,36.09305 22.38328,12.04854 42.80799,21.33509 63.50332,26.35096 42.00169,10.17983 74.74345,-0.55507 102.91732,-18.27929 26.93388,-16.94417 43.44759,-34.94324 43.44759,-34.94324 M 2.2078821,103.76285 C 18.912733,88.774042 37.114836,81.056366 57.592395,80.326605 c 20.434782,-0.72825 41.55142,5.510779 63.792435,15.107291 21.99908,9.492124 44.3829,21.887914 66.27431,32.519814 22.37513,10.86682 42.81665,19.25709 63.543,23.80237 42.07753,9.22759 74.90543,-0.40266 103.1248,-16.40354 26.91563,-15.26165 43.46518,-31.58969 43.46518,-31.58969 M 2.2078821,90.931581 C 18.921391,77.760335 37.101978,70.970016 57.537883,70.321596 c 20.394151,-0.647106 41.454919,4.830429 63.650577,13.270176 21.95386,8.347798 44.30482,19.259118 66.18917,28.629808 22.3672,9.57747 42.82811,16.98628 63.58869,21.01268 42.16133,8.17693 75.08168,-0.2621 103.34784,-14.38246 26.89266,-13.43421 43.47796,-27.920219 43.47796,-27.920219 M 2.2078821,78.100291 C 18.93068,66.857119 37.088476,61.053398 57.480357,60.494624 c 20.351238,-0.557662 41.352971,4.115643 63.501293,11.329269 21.9066,7.134889 44.22387,16.469817 66.10195,24.498097 22.35995,8.2051 42.84297,14.56573 63.64082,18.03441 42.25297,7.04701 75.2703,-0.13771 103.58354,-12.25499 26.86658,-11.498167 43.48416,-24.001119 43.48416,-24.001119 M 2.2078821,65.269018 C 18.940139,56.022975 37.073968,51.243833 57.419929,50.780711 c 20.306596,-0.462228 41.246977,3.38066 63.346881,9.32399 21.85817,5.878328 44.14165,13.577168 66.01484,20.208969 22.35387,6.777555 42.86203,12.044045 63.69993,14.926981 42.3523,5.859479 75.46915,-0.03418 103.82871,-10.064727 26.83995,-9.493089 43.48183,-19.906906 43.48183,-19.906906 M 2.2078821,52.437747 C 37.325442,37.280263 74.707603,38.725259 120.5464,48.405367 c 43.61908,9.211361 88.88672,23.153903 129.69697,27.612419 42.4592,4.638668 75.67588,0.04377 104.07992,-7.859526 26.81584,-7.461438 43.46883,-15.720513 43.46883,-15.720513 M 2.2078821,39.606474 C 37.344344,28.627831 74.587036,29.659043 120.32299,36.693848 c 43.52343,6.694484 88.79105,16.860095 129.69278,20.137567 42.5737,3.411449 75.88792,0.09121 104.33349,-5.691807 26.79732,-5.447938 43.44286,-11.533134 43.44286,-11.533134 M 2.2078821,26.775204 C 37.360407,19.801603 74.461905,20.445868 120.09941,24.934865 c 43.43157,4.272016 88.70764,10.783487 129.70573,12.90303 42.69597,2.20732 76.1024,0.102886 104.58551,-3.618387 26.7861,-3.499572 43.40147,-7.444304 43.40147,-7.444304 M 2.2078821,13.943933 C 37.373313,10.675904 74.331385,10.97224 119.87851,13.089921 c 43.34589,2.015335 88.64074,5.10076 129.73981,6.116439 42.82618,1.058364 76.31627,0.07347 104.83181,-1.70054 26.78179,-1.666153 43.34199,-3.561887 43.34199,-3.561887 M 2.2078821,1.1126599 c 131.9000779,0.011699 395.5842379,0 395.5842379,0" /></g><g
     inkscape:groupmode="layer"
     id="layer2"
     inkscape:label="Icon"
     style="display:inline;opacity:1;stroke:#000000;stroke-width:3;stroke-linecap:round;stroke-dasharray:none;stroke-opacity:1"><g
       id="g50666"
       transform="matrix(1.2335589,0,0,1.24506,-60.833337,-16.996546)"
       style="stroke:none;stroke-opacity:1"><g
         id="g48260"
         transform="translate(0,15.501684)"
         style="display:none;fill:#ffffff;fill-opacity:1;stroke:none;stroke-opacity:1"><path
           style="fill:#ffffff;fill-opacity:1;stroke:none;stroke-width:2.91042;stroke-linecap:round;stroke-dasharray:none;stroke-opacity:1;paint-order:markers stroke fill;stop-color:#000000"
           d="m 79.653908,150.60721 c -0.10521,0.12298 -0.206125,0.25085 -0.302549,0.38343 -0.775327,1.18952 -1.111833,2.31313 -1.117566,3.26226 -0.04657,2.17376 0.712536,3.79388 1.769033,4.92944 0.685504,0.66097 1.451035,1.22652 2.282517,1.68428 0.570942,-0.75682 1.046923,-1.55402 1.415119,-2.37314 0.696266,-1.27935 1.145828,-2.30622 1.616012,-2.93144 0.219506,-0.24881 0.259818,-0.30137 0.208917,-0.11851 -0.02101,0.028 -0.04246,0.0543 -0.06446,0.079 -0.183747,0.20481 -0.395707,0.28327 -0.6608,0.27765 -0.001,-0.8925 2.407306,-0.86182 5.160288,-1.81618 -0.474699,-2.45966 -1.946613,-5.62819 -7.016893,-5.31164 -1.280195,0.26019 -2.421772,0.92112 -3.289619,1.93483 z"
           id="path47783"
           inkscape:path-effect="#path-effect47793"
           inkscape:original-d="m 82.285416,160.86666 c 0,0 -3.922812,-13.57396 7.672916,-6.87916"
           class="UnoptimicedTransforms"
           transform="translate(0,1.4967094)"
           sodipodi:nodetypes="cc" /><path
           style="fill:#ffffff;fill-opacity:1;stroke:none;stroke-width:2.91042;stroke-linecap:round;stroke-dasharray:none;stroke-opacity:1;paint-order:markers stroke fill;stop-color:#000000"
           d="m 83.15137,130.19603 c -0.22761,0.20198 -0.444593,0.41908 -0.649986,0.65058 -1.028602,1.26399 -1.568883,2.53258 -1.707836,3.67882 l 0,0 c -0.309551,2.45716 0.414207,4.3571 1.586008,5.7433 l 0,0 1e-6,1e-5 0,0 c 0.48868,0.59854 1.054467,1.11959 1.682027,1.55363 l 0,0 c 0.201227,0.13919 0.408268,0.27039 0.621731,0.39065 l 0,0 c 0,0 1e-6,0 1e-6,0 0.05974,0.0335 0.119918,0.0663 0.180725,0.0982 0,0 0,0 0,0 0.01623,0.009 0.0325,0.0169 0.04883,0.0253 0.0061,0.003 0.01218,0.006 0.01829,0.009 0.0046,-0.005 0.0093,-0.01 0.0139,-0.0148 0.01243,-0.0133 0.02487,-0.0266 0.03733,-0.0398 0,0 10e-7,0 10e-7,0 0.04165,-0.0443 0.09804,-0.10409 0.139692,-0.14843 0,0 10e-7,0 10e-7,0 l 0,0 c 0.164259,-0.17397 0.331471,-0.35017 0.490513,-0.52129 l 0,0 c 0.497681,-0.53539 0.974252,-1.06637 1.406758,-1.57217 l 10e-7,0 0,0 0,0 c 1.079496,-1.26277 1.81055,-2.23758 2.454362,-2.73162 l 0,0 c 0.283118,-0.16933 0.359422,-0.17512 0.275939,0.0351 -0.03789,0.0449 -0.07694,0.085 -0.117403,0.12035 -0.190147,0.16446 -0.401906,0.21364 -0.638587,0.16641 -0.113527,-1.04664 2.807815,-1.46125 5.729818,-2.70642 -0.374548,-3.0671 -2.061533,-6.70327 -7.889508,-6.4856 -1.358279,0.21798 -2.624276,0.81027 -3.68261,1.7486 z"
           id="path47795"
           inkscape:path-effect="#path-effect47805"
           inkscape:original-d="m 84.931249,142.34583 c 0,0 -2.731391,-14.63732 9.789583,-7.40833"
           class="UnoptimicedTransforms"
           sodipodi:nodetypes="cc" /><path
           style="fill:#ffffff;fill-opacity:1;stroke:none;stroke-width:2.91042;stroke-linecap:round;stroke-dasharray:none;stroke-opacity:1;paint-order:markers stroke fill;stop-color:#000000"
           d="m 91.828166,114.02142 c -0.321267,0.2453 -0.624923,0.52355 -0.907582,0.83285 -0.927037,1.12897 -1.4061,2.2753 -1.528829,3.31343 l 0,0 c -0.277281,2.24709 0.361364,3.99424 1.338315,5.27631 l 0,0 0,0 0,0 c 0.412721,0.56132 0.888142,1.05195 1.411614,1.46504 l 0,0 c 0.168486,0.13297 0.34157,0.2586 0.519739,0.37462 l 0,0 c 0,0 10e-7,0 10e-7,0 0.04994,0.0324 0.10024,0.0642 0.151058,0.0951 0,0 10e-7,0 10e-7,0 0.01358,0.008 0.02719,0.0165 0.04086,0.0246 0.0051,0.003 0.01022,0.006 0.01534,0.009 0.0034,-0.005 0.0067,-0.01 0.01007,-0.0145 0.009,-0.013 0.01801,-0.0259 0.02703,-0.0388 0,0 0,0 0,0 0.03798,-0.0545 0.06327,-0.0905 0.10125,-0.14499 0,0 0,0 0,0 l 0,0 c 0.11931,-0.17048 0.240147,-0.34301 0.356109,-0.5125 l 0,0 c 0.361173,-0.5278 0.706648,-1.05683 1.025298,-1.57011 l 0,0 0,0 0,0 c 0.772855,-1.23895 1.34614,-2.31572 1.905474,-2.90377 l 0,0 c 0.256572,-0.22196 0.345444,-0.29122 0.325243,-0.15504 -0.03876,0.043 -0.07451,0.0781 -0.108711,0.10511 -0.0955,0.0744 -0.173918,0.0805 -0.251656,0.0251 0,0 10e-7,0 10e-7,0 0.559856,-0.90055 3.434666,-0.84199 6.137076,-1.67314 -0.61117,-2.65796 -2.434262,-5.93298 -7.613654,-5.74311 -1e-6,0 -1e-6,0 -1e-6,0 -1.052435,0.14001 -2.063151,0.55502 -2.954049,1.23475 z"
           id="path47807"
           inkscape:path-effect="#path-effect47817"
           inkscape:original-d="m 92.868749,125.4125 c 0,0 -3.25125,-14.25554 9.525001,-6.87917"
           class="UnoptimicedTransforms"
           sodipodi:nodetypes="cc" /><path
           style="fill:#ffffff;fill-opacity:1;stroke:none;stroke-width:2.91042;stroke-linecap:round;stroke-dasharray:none;stroke-opacity:1;paint-order:markers stroke fill;stop-color:#000000"
           d="m 99.443292,99.998534 c -1.135397,1.005466 -1.909644,2.223146 -2.311648,3.487916 -0.173357,2.89752 0.441508,5.68668 1.822465,7.90306 2.205561,-1.38128 3.905601,-3.23287 4.900581,-5.42102 0.41187,-0.2701 0.63735,-0.44007 0.83157,-0.60227 0.15142,-0.12781 0.22406,-0.20523 0.30171,-0.21577 0.55993,-0.93054 3.13649,-1.23531 5.87454,-1.96651 -0.68685,-2.5467 -2.87694,-5.567466 -7.78263,-5.141223 -1.38981,0.384022 -2.63484,1.069478 -3.636588,1.955817 z"
           id="path47819"
           inkscape:path-effect="#path-effect47829"
           inkscape:original-d="m 98.954165,111.38958 c 0,0 0.121891,-15.005786 11.906255,-8.20208"
           class="UnoptimicedTransforms"
           sodipodi:nodetypes="cc"
           transform="translate(-1.0583333,0.52916667)" /><path
           style="fill:#ffffff;fill-opacity:1;stroke:none;stroke-width:2.91042;stroke-linecap:round;stroke-dasharray:none;stroke-opacity:1;paint-order:markers stroke fill;stop-color:#000000"
           d="m 119.1778,98.734688 c 0.7582,-0.49429 1.67997,-1.008933 2.58735,-1.453228 0,0 0,0 0,0 1.35809,-0.673867 3.03129,-1.266685 4.7532,-1.862347 0.99119,-0.248313 1.95055,-0.571259 2.86284,-0.962823 -0.64764,-0.753651 -1.40354,-1.473005 -2.25737,-2.149472 -1.70985,-1.14712 -4.00678,-1.903689 -6.68775,-1.79537 0,0 0,0 0,0 -1.89366,0.09523 -3.80448,0.70578 -5.49463,1.835654 -0.99661,0.667321 -1.88898,1.4977 -2.6333,2.46082 -3.11632,4.435073 -2.36257,8.990248 -0.64989,11.819558 2.14023,-2.42974 4.32225,-5.55599 6.21182,-6.929501 0.40241,-0.342771 0.84342,-0.661187 1.30773,-0.963291 z"
           id="path47831"
           inkscape:path-effect="#path-effect47841"
           inkscape:original-d="m 129.38125,94.456249 c 0,0 -16.13958,-5.55625 -17.72708,12.170831"
           class="UnoptimicedTransforms" /><path
           style="fill:#ffffff;fill-opacity:1;stroke:none;stroke-width:2.91042;stroke-linecap:round;stroke-dasharray:none;stroke-opacity:1;paint-order:markers stroke fill;stop-color:#000000"
           d="m 149.84542,107.16054 c -0.8244,-1.8672 -2.17953,-3.45073 -3.8028,-4.4905 -2.46631,-0.61579 -4.83955,-0.72644 -6.8717,-0.27633 0.91021,1.85344 2.19394,3.51829 3.77921,4.84451 0.42167,0.81094 0.70958,1.66983 0.95667,2.49028 0.0834,0.27512 0.1674,0.56467 0.24716,0.84684 0,0 0,0 0,0 0.89457,2.26486 1.53345,5.25156 2.69318,7.95893 2.35626,-1.76659 4.28926,-5.29191 3.62106,-9.48517 0,0 0,0 0,0 -0.14366,-0.64185 -0.35233,-1.27528 -0.62278,-1.88856 z"
           id="path47843"
           inkscape:path-effect="#path-effect47853"
           inkscape:original-d="m 139.17083,102.39375 c 0,0 11.61628,1.42278 7.67292,16.13958"
           class="UnoptimicedTransforms"
           transform="translate(-1.5875,1.0583333)"
           sodipodi:nodetypes="cc" /><path
           style="fill:#ffffff;fill-opacity:1;stroke:none;stroke-width:2.91042;stroke-linecap:round;stroke-dasharray:none;stroke-opacity:1;paint-order:markers stroke fill;stop-color:#000000"
           d="m 171.0874,143.42354 c -0.54464,-1.04809 -1.15987,-2.03948 -1.8315,-2.96857 0,0 0,0 0,0 l 0,0 c -2.02602,-2.82302 -4.53952,-5.07675 -7.26266,-6.62757 l 0,0 0,0 0,0 c -0.99442,-0.56671 -2.00943,-1.03751 -3.03385,-1.40375 l 0,0 c -0.30854,-0.1103 -0.61739,-0.21132 -0.92671,-0.30166 l 0,0 c -0.0838,-0.0245 -0.16767,-0.0482 -0.2516,-0.071 0,0 0,0 0,0 -0.0219,-0.006 -0.0439,-0.0119 -0.0658,-0.0177 -0.008,-0.002 -0.0157,-0.004 -0.0235,-0.006 -1e-4,0.009 -1.3e-4,0.015 -2.3e-4,0.0242 1.1e-4,-0.0105 -7.5e-4,0.0784 -6.5e-4,0.0679 0,0 0,0 0,0 -7.8e-4,0.0866 -0.001,0.17356 -0.002,0.26049 l 0,0 c -7.9e-4,0.32012 0.003,0.64244 0.0123,0.96561 l 0,0 c 0.0315,1.07218 0.12294,2.16141 0.27759,3.25564 l 0,0 0,1e-5 0,0 c 0.42322,2.99435 1.3003,5.99606 2.51608,8.85133 l 0,0 c 0,0 0,0 0,0 0.40569,0.95945 0.84777,1.89035 1.31752,2.79329 1.07006,2.05095 2.28311,3.95698 3.54288,5.74596 1.72685,2.70789 3.84808,4.60237 5.30596,7.40531 2.46089,-2.19254 3.35372,-6.3986 2.81438,-10.24569 -0.29989,-2.68891 -1.14375,-5.32855 -2.3887,-7.72765 z"
           id="path47855"
           inkscape:path-effect="#path-effect47865"
           inkscape:original-d="m 157.69166,132.02708 c 0,0 14.81667,19.31458 12.96459,29.36875"
           class="UnoptimicedTransforms"
           transform="translate(-6.8791667,2.1166667)" /><path
           style="fill:#ffffff;fill-opacity:1;stroke:none;stroke-width:2.91042;stroke-linecap:round;stroke-dasharray:none;stroke-opacity:1;paint-order:markers stroke fill;stop-color:#000000"
           d="m 188.53679,200.23069 c -0.4245,-1.36945 -0.89478,-2.73158 -1.41317,-4.07612 -2.2267,-6.43607 -5.59832,-12.04672 -9.58812,-15.97332 -1.63921,5.35382 -1.91148,11.97112 -0.78276,18.78141 0.29624,1.48104 0.67013,2.96378 1.12401,4.43356 1.07814,3.48125 2.58439,6.82034 4.48512,9.80892 2.585,4.11117 5.90993,7.60218 9.7303,9.04121 -0.46781,-3.88545 -0.46942,-7.84479 -1.29163,-12.34606 -0.52005,-3.17297 -1.26577,-6.4445 -2.26375,-9.6696 z"
           id="path47867"
           inkscape:path-effect="#path-effect47877"
           inkscape:original-d="m 177.53541,180.18125 c 0,0 6.87917,32.27916 14.55209,42.06875"
           class="UnoptimicedTransforms"
           transform="translate(-4.2333333,2.1166667)" /><path
           style="fill:#ffffff;fill-opacity:1;stroke:none;stroke-width:2.91042;stroke-linecap:round;stroke-dasharray:none;stroke-opacity:1;paint-order:markers stroke fill;stop-color:#000000"
           d="m 110.44979,208.80419 c -0.62667,-0.74701 -1.27554,-1.4783 -1.9451,-2.18961 0,0 0,0 0,0 -4.10278,-4.53746 -8.88066,-7.98632 -13.519204,-9.7646 0.672628,4.92249 2.966083,10.39368 6.474674,15.45878 0,0 0,0 0,0 0.5864,0.81259 1.20553,1.60966 1.85557,2.38608 2.18616,2.60688 4.68053,4.93134 7.36435,6.79758 0,0 0,0 0,0 1.64302,1.14128 3.34165,2.10459 5.07124,2.81471 1.46736,0.60072 2.94738,1.05096 4.37222,1.11375 -0.61849,-1.25619 -1.09809,-2.55359 -1.73507,-3.91767 -0.71547,-1.57352 -1.53509,-3.22939 -2.47438,-4.86342 0,0 0,0 0,0 -1.53362,-2.67456 -3.37063,-5.33748 -5.4643,-7.8356 z"
           id="path47879"
           inkscape:path-effect="#path-effect47889"
           inkscape:original-d="m 94.985415,196.85 c 0,0 18.256255,24.07708 25.135415,28.575"
           class="UnoptimicedTransforms"
           transform="translate(3.175,-3.7041667)" /><path
           style="fill:#ffffff;fill-opacity:1;stroke:none;stroke-width:2.91042;stroke-linecap:round;stroke-dasharray:none;stroke-opacity:1;paint-order:markers stroke fill;stop-color:#000000"
           d="m 141.65891,245.45127 c -0.39403,-0.57295 -0.83978,-1.10351 -1.32967,-1.58583 0,0 0,0 0,0 l 0,0 c -1.20457,-1.18749 -2.65911,-2.07169 -4.25066,-2.5934 l 0,0 0,0 0,0 c -0.56709,-0.18594 -1.14818,-0.32547 -1.73802,-0.41571 l 0,0 c -0.17569,-0.0268 -0.35203,-0.0493 -0.52901,-0.0673 0,0 0,0 0,0 -0.0481,-0.005 -0.0962,-0.009 -0.14432,-0.0137 0,0 0,0 0,0 -0.0174,-0.001 -0.0351,-0.003 -0.0526,-0.005 -0.003,0.0173 -0.005,0.0347 -0.008,0.052 0,0 0,0 0,0 -0.007,0.0477 -0.0141,0.0953 -0.0207,0.14306 0,0 0,0 0,0 -0.0245,0.17561 -0.0456,0.35162 -0.0631,0.52774 l 0,0 c -0.0589,0.59025 -0.0779,1.18125 -0.0555,1.76836 l 0,0 0,0 0,0 c 0.0631,1.64703 0.44672,3.24059 1.12312,4.69187 l 0,0 c 0,0 0,0 0,0 0.27645,0.59329 0.59934,1.15785 0.96436,1.68999 0.65167,0.94684 1.4319,1.78372 2.3202,2.50661 1.43338,1.19108 3.1819,1.97415 5.00336,2.64175 0.8247,-1.83919 0.84134,-4.00036 0.3267,-5.96675 -0.31703,-1.20932 -0.84518,-2.35278 -1.54644,-3.37422 z"
           id="path47891"
           inkscape:path-effect="#path-effect47901"
           inkscape:original-d="m 133.61458,240.77083 c 0,0 7.14375,8.99583 9.26042,14.02292"
           class="UnoptimicedTransforms"
           transform="translate(1.0583333,-2.1166667)" /><path
           style="opacity:1;fill:#ffffff;fill-opacity:1;stroke:none;stroke-width:2.91042;stroke-linecap:round;stroke-dasharray:none;stroke-opacity:1;paint-order:markers stroke fill;stop-color:#000000"
           d="m 123.81441,119.32342 c -2.29771,-3.59231 -5.54143,-6.36097 -8.9852,-7.66928 -0.26021,3.67472 0.88878,7.78168 3.18275,11.3764 2.29907,3.5945 5.54523,6.36428 8.99114,7.67166 0.25869,-3.67628 -0.89249,-7.78425 -3.18869,-11.37878 z"
           id="path47940"
           inkscape:path-effect="#path-effect47955"
           inkscape:original-d="M 114.82917,111.65417 127,130.70417"
           class="UnoptimicedTransforms" /><path
           style="opacity:1;fill:#ffffff;fill-opacity:1;stroke:none;stroke-width:2.91042;stroke-linecap:round;stroke-dasharray:none;stroke-opacity:1;paint-order:markers stroke fill;stop-color:#000000"
           d="m 111.41237,127.66932 c -1.29938,-2.39475 -3.50446,-4.16465 -6.10816,-4.90267 -0.8043,2.584 -0.52655,5.39788 0.76938,7.79451 1.30013,2.39621 3.50703,4.16676 6.11262,4.90403 0.80331,-2.58502 0.52394,-5.39949 -0.77384,-7.79587 z"
           id="path47957"
           inkscape:path-effect="#path-effect47967"
           inkscape:original-d="m 105.30417,122.76667 6.87916,12.69999"
           class="UnoptimicedTransforms" /><path
           style="opacity:1;fill:#ffffff;fill-opacity:1;stroke:none;stroke-width:2.91042;stroke-linecap:round;stroke-dasharray:none;stroke-opacity:1;paint-order:markers stroke fill;stop-color:#000000"
           d="m 102.93771,141.72878 c -0.99974,-1.69603 -2.81988,-2.81051 -5.041842,-3.08714 -0.837815,2.07648 -0.748082,4.20885 0.248562,5.90671 1.000317,1.69708 2.822,2.81185 5.04565,3.08769 0.83701,-2.07715 0.7459,-4.2098 -0.25237,-5.90726 z"
           id="path47969"
           inkscape:path-effect="#path-effect47979"
           inkscape:original-d="m 97.895832,138.64166 5.291668,8.99584"
           class="UnoptimicedTransforms" /><path
           style="opacity:1;fill:#ffffff;fill-opacity:1;stroke:none;stroke-width:2.91042;stroke-linecap:round;stroke-dasharray:none;stroke-opacity:1;paint-order:markers stroke fill;stop-color:#000000"
           d="m 98.415251,163.13773 c -0.600277,-1.3969 -1.933976,-2.40781 -3.694387,-2.80024 -0.929926,1.54542 -1.117705,3.20839 -0.520151,4.60647 0.600616,1.39776 1.935525,2.40903 3.697396,2.80098 0.929357,-1.54601 1.116056,-3.20931 0.517142,-4.60721 z"
           id="path47981"
           inkscape:path-effect="#path-effect47991"
           inkscape:original-d="m 94.720832,160.3375 3.175,7.40833"
           class="UnoptimicedTransforms" /><path
           style="opacity:1;fill:#ffffff;fill-opacity:1;stroke:none;stroke-width:2.91042;stroke-linecap:round;stroke-dasharray:none;stroke-opacity:1;paint-order:markers stroke fill;stop-color:#000000"
           d="m 86.99475,172.37287 c -0.450116,-0.91399 -0.966385,-1.8005 -1.536497,-2.67536 -0.655144,-1.43991 -1.603955,-2.71912 -2.765032,-3.74974 -0.841763,1.30896 -1.389345,2.91134 -1.608247,4.6611 0.03873,1.30415 0.369778,2.63851 0.956295,3.87586 1.479603,3.11314 4.230057,5.00874 6.921544,5.30552 -0.119086,-2.67296 -0.885497,-5.21489 -1.968063,-7.41738 z"
           id="path47993"
           inkscape:path-effect="#path-effect48003"
           inkscape:original-d="m 82.693191,165.94765 c 0,0 -0.561266,6.5481 6.267471,13.84456"
           class="UnoptimicedTransforms"
           sodipodi:nodetypes="cc" /></g><g
         id="g48233"
         transform="translate(0,20.637507)"
         style="display:none;fill:#ffffff;fill-opacity:1;stroke:none;stroke-opacity:1"><path
           style="opacity:1;fill:#ffffff;fill-opacity:1;stroke:none;stroke-width:6.87917;stroke-linecap:round;stroke-dasharray:none;stroke-opacity:1;paint-order:markers stroke fill;stop-color:#000000"
           d="m 302.9209,83.178539 c -1.8794,-1.257018 -4.00513,-1.864438 -6.08154,-1.84511 0,0 0,0 0,0 -3.04459,0.06725 -5.49235,1.15995 -7.21703,2.654876 -0.8756,0.888238 -1.63081,1.832554 -2.25412,2.820751 1.05903,0.490416 2.16139,0.887858 3.28772,1.183917 1.89424,0.688335 3.61134,1.298569 4.91482,1.996635 0,10e-7 0,10e-7 0,10e-7 0.66673,0.371009 1.59153,0.911288 2.07389,1.211732 0.36137,0.223808 0.69871,0.447879 0.98612,0.687133 1.93356,1.166296 3.90397,4.396021 6.39311,7.227057 2.45115,-2.792518 4.15001,-7.633309 0.87686,-13.039364 -0.82626,-1.155128 -1.84046,-2.134827 -2.97983,-2.897628 z"
           id="path48014"
           inkscape:path-effect="#path-effect48029"
           inkscape:original-d="m 287.36819,86.809142 c 0,0 17.65054,-7.166916 17.65054,12.30635"
           class="UnoptimicedTransforms"
           sodipodi:nodetypes="cc" /><path
           style="opacity:1;fill:#ffffff;fill-opacity:1;stroke:none;stroke-width:6.87917;stroke-linecap:round;stroke-dasharray:none;stroke-opacity:1;paint-order:markers stroke fill;stop-color:#000000"
           d="m 287.48367,157.34432 c -1.39621,1.64811 -2.0221,3.82709 -1.73371,6.03585 2.22625,-0.0751 4.27426,-1.04744 5.67303,-2.6934 1.39708,-1.64908 2.02286,-3.82964 1.73328,-6.03966 -2.2267,0.0762 -4.27463,1.0499 -5.6726,2.69721 z"
           id="path48286"
           inkscape:path-effect="#path-effect48296"
           inkscape:original-d="m 285.74999,163.3802 7.40833,-8.73125"
           class="UnoptimicedTransforms"
           transform="translate(49.741672,-2.513541)"
           sodipodi:nodetypes="cc" /><path
           style="opacity:1;fill:#ffffff;fill-opacity:1;stroke:none;stroke-width:6.87917;stroke-linecap:round;stroke-dasharray:none;stroke-opacity:1;paint-order:markers stroke fill;stop-color:#000000"
           d="m 315.66708,96.501238 c 0.47505,0.358748 0.65428,0.480923 1.29434,0.926346 0,0 0,10e-7 0,10e-7 l 0,0 c 0.85051,0.673056 1.80887,1.681892 2.90572,2.791645 l 0,0 0,0 0,0 c 0.41883,0.42708 0.88785,0.89518 1.33264,1.33814 l 0,0 c 0.14264,0.1421 0.28639,0.28371 0.43008,0.42797 l 0,0 c 0,0 0,0 0,0 0.0399,0.0403 0.0796,0.0802 0.11929,0.12069 0,0 0,0 0,0 0.0106,0.0107 0.0211,0.0215 0.0316,0.0323 0.004,0.004 0.008,0.008 0.0117,0.012 0.004,-0.004 0.008,-0.008 0.0122,-0.0119 0.0108,-0.0107 0.0216,-0.0215 0.0323,-0.0323 0,0 0,0 0,0 0.0402,-0.0406 0.0798,-0.082 0.11882,-0.12394 0,0 0,0 0,0 l 0,0 c 0.14101,-0.15193 0.27501,-0.31264 0.40326,-0.47943 l 0,0 c 0.4107,-0.53415 0.75683,-1.13831 1.02764,-1.797483 l 0,0 0,-10e-7 0,0 c 0.69654,-1.664343 0.87915,-3.723604 0.10753,-5.948722 l 0,0 c 0,0 0,-10e-7 0,-10e-7 -0.55783,-1.552241 -1.61443,-2.957435 -3.09798,-3.981881 -0.88729,-0.611578 -1.90027,-1.067648 -2.98879,-1.334663 -4.98416,-0.779456 -7.89238,1.987438 -9.08363,4.734203 2.88154,1.231446 5.68053,1.915601 6.75543,2.898821 0.18147,0.117 0.38298,0.272757 0.58793,0.428155 z"
           id="path48031"
           inkscape:path-effect="#path-effect48041"
           inkscape:original-d="m 321.79252,102.15041 c 0,0 0.33266,-14.46841 -13.47039,-8.980253"
           class="UnoptimicedTransforms"
           sodipodi:nodetypes="cc" /><path
           style="opacity:1;fill:#ffffff;fill-opacity:1;stroke:none;stroke-width:6.87917;stroke-linecap:round;stroke-dasharray:none;stroke-opacity:1;paint-order:markers stroke fill;stop-color:#000000"
           d="m 330.02574,105.07975 c -1.28289,-1.06366 -2.82115,-1.53903 -4.32493,-1.43762 0,0 0,0 0,0 l 0,0 c -2.00401,0.20447 -3.38893,1.13056 -4.26734,2.29344 l 0,0 0,0 0,0 c -0.37109,0.47726 -0.66674,0.99499 -0.88232,1.53841 l 0,0 c -0.0672,0.17238 -0.12773,0.34742 -0.18006,0.52546 0,0 0,0 0,0 -0.0146,0.0498 -0.0286,0.0998 -0.0419,0.15014 0,0 0,0 0,0 -0.005,0.0185 -0.01,0.037 -0.0146,0.0557 0.0168,0.008 0.0341,0.0158 0.0509,0.0239 0,0 0,0 0,0 0.0461,0.022 0.0918,0.0439 0.13775,0.0659 0,0 0,0 0,0 0.16239,0.0779 0.32751,0.15715 0.48852,0.23285 l 0,0 c 0.49401,0.23608 1.00317,0.47767 1.45952,0.68889 l 0,0 0,0 0,0 c 1.14021,0.53275 2.08626,0.95658 2.57394,1.3961 l 0,0 c 0,0 0,0 0,0 0.12905,0.25662 0.18405,0.39456 0.20109,0.38534 0.009,-0.005 0.008,-0.0437 -0.004,-0.0946 0,0 0,0 0,0 0.89997,0.2401 2.05246,2.39892 3.85775,4.3663 2.23929,-1.35999 4.29098,-4.00234 2.59858,-8.20658 0,0 0,0 0,0 -0.4446,-0.77706 -1.00643,-1.44736 -1.65256,-1.9836 z"
           id="path48043"
           inkscape:path-effect="#path-effect48053"
           inkscape:original-d="m 320.3146,108.20534 c 0,0 10.51473,-5.23142 8.76107,7.06397"
           class="UnoptimicedTransforms"
           sodipodi:nodetypes="cc" /><path
           style="opacity:1;fill:#ffffff;fill-opacity:1;stroke:none;stroke-width:6.87917;stroke-linecap:round;stroke-dasharray:none;stroke-opacity:1;paint-order:markers stroke fill;stop-color:#000000"
           d="m 333.06556,125.90423 c 0.11362,0.2148 0.31398,0.46698 0.63034,0.75409 0,0 0,0 0,0 l 0,0 c 0.67685,0.8505 1.5012,1.94623 2.55189,3.08467 l 0,0 0,0 0,0 c 0.42423,0.46023 0.88331,0.92076 1.36363,1.37346 l 0,0 c 0.15196,0.14325 0.30872,0.28701 0.46505,0.4297 l 0,0 c 0,0 0,0 0,0 0.0242,0.0222 0.10737,0.098 0.1316,0.12017 0,0 0,0 0,0 -0.005,-0.004 0.0399,0.0364 0.0351,0.0321 0.004,0.004 0.009,0.008 0.0131,0.012 0.004,-0.004 0.009,-0.008 0.0134,-0.0118 0.0119,-0.0106 0.0238,-0.0213 0.0356,-0.032 0,0 0,0 0,0 0.0444,-0.0403 0.0881,-0.0812 0.1314,-0.12264 0,0 0,0 0,0 l 0,0 c 0.15535,-0.14933 0.30375,-0.3068 0.44621,-0.47029 l 0,0 c 0.44999,-0.51642 0.83481,-1.09789 1.14509,-1.73159 l 0,0 0,0 0,0 c 0.7713,-1.54412 1.0697,-3.43674 0.53502,-5.52597 l 0,0 c 0,0 0,0 0,0 -0.17637,-0.89821 -0.5921,-1.79981 -1.26789,-2.62851 -0.88623,-1.08465 -2.18246,-1.99314 -3.74365,-2.52311 0,0 -10e-6,0 -10e-6,0 -1.67888,-0.38206 -3.11127,-0.11621 -4.191,0.49315 -1.72733,0.99575 -2.5189,2.47836 -2.83074,3.9504 1.43206,0.46499 2.84729,0.84029 3.72456,1.3797 0.49727,0.34706 0.76522,0.64767 0.69816,0.88343 0,0 0,0 0,0 -0.008,0.0806 -0.0386,0.24468 0.1131,0.53315 z"
           id="path48055"
           inkscape:path-effect="#path-effect48065"
           inkscape:original-d="m 338.25632,131.71042 c 0,0 0.24898,-14.36665 -9.72862,-8.60608"
           class="UnoptimicedTransforms"
           sodipodi:nodetypes="cc" /><path
           style="opacity:1;fill:#ffffff;fill-opacity:1;stroke:none;stroke-width:6.87917;stroke-linecap:round;stroke-dasharray:none;stroke-opacity:1;paint-order:markers stroke fill;stop-color:#000000"
           d="m 339.13694,145.71034 c 0.0544,0.0531 0.16888,0.0664 0.42721,0.16732 0,0 0,0 0,0 0.4439,0.32892 0.8894,1.06887 1.43687,2.01516 0.26721,0.60374 0.60216,1.20025 0.99704,1.77802 0.62452,-0.31815 1.21114,-0.71349 1.7524,-1.17957 0.86865,-0.88054 1.49871,-2.20198 1.43158,-3.98971 0,0 0,0 0,0 -0.13081,-1.40931 -0.81814,-2.7466 -2.00111,-3.71254 -0.49489,-0.40342 -1.06401,-0.73137 -1.68834,-0.96867 0,0 0,0 0,0 -3.79564,-0.96582 -5.95824,1.05659 -6.97724,3.11871 1.95061,1.29875 4.04873,1.97176 4.61589,2.72923 0,0 0,0 0,0 -0.009,0.011 -0.0107,0.0256 0.006,0.042 z"
           id="path48067"
           inkscape:path-effect="#path-effect48077"
           inkscape:original-d="m 341.99808,149.67093 c 0,0 3.50107,-9.67851 -7.48355,-6.73519"
           class="UnoptimicedTransforms"
           sodipodi:nodetypes="cc" /><path
           style="opacity:1;fill:#ffffff;fill-opacity:1;stroke:none;stroke-width:6.87917;stroke-linecap:round;stroke-dasharray:none;stroke-opacity:1;paint-order:markers stroke fill;stop-color:#000000"
           d="m 226.32737,83.714005 c 0.46077,-0.667458 0.91637,-1.349145 1.36541,-2.072956 0,0 0,-10e-7 0,-10e-7 l 0,0 c 0.94024,-1.491875 1.82383,-3.05966 2.55444,-4.669848 l 0,0 0,0 0,0 c 0.26537,-0.584269 0.50938,-1.177281 0.73139,-1.763894 l 0,0 c 0.0668,-0.176399 0.13203,-0.354826 0.19588,-0.530773 l 0,0 c 0,0 0,0 0,-1e-6 0.0143,-0.03918 0.0381,-0.105082 0.0524,-0.144259 0,0 0,0 0,0 -0.002,0.005 0.0156,-0.04291 0.0138,-0.03795 0.002,-0.0047 0.003,-0.0094 0.005,-0.01405 -0.005,-2.93e-4 -0.01,-5.38e-4 -0.0151,-8.05e-4 -0.0135,-6.6e-4 -0.0271,-0.0013 -0.0406,-0.0018 0,0 0,0 0,0 -0.0514,-0.0021 -0.10286,-0.0035 -0.15451,-0.0045 0,0 0,0 0,0 l 0,0 c -0.19007,-0.0033 -0.38224,7.85e-4 -0.57613,0.01073 l 0,0 c -0.64519,0.0331 -1.3069,0.135229 -1.97521,0.30195 l 0,0 0,0 0,0 c -1.84188,0.458184 -3.70304,1.414119 -5.34622,2.874137 l 0,0 c 0,0 0,10e-7 0,10e-7 -0.7871,0.691134 -1.5097,1.497671 -2.13144,2.411395 -0.83122,1.223943 -1.45593,2.603683 -1.80211,4.055693 -0.78446,3.227391 0.19583,6.253895 1.99049,7.814894 0.98681,-2.229581 2.0722,-3.847708 3.33556,-5.662402 0.57824,-0.840725 1.18396,-1.679129 1.79679,-2.56557 z"
           id="path48079"
           inkscape:path-effect="#path-effect48089"
           inkscape:original-d="m 231.24582,74.4802 c 0,0 -12.17083,7.937499 -10.05416,17.462499"
           class="UnoptimicedTransforms"
           transform="translate(49.741672,18.123966)" /><path
           style="opacity:1;fill:#ffffff;fill-opacity:1;stroke:none;stroke-width:6.87917;stroke-linecap:round;stroke-dasharray:none;stroke-opacity:1;paint-order:markers stroke fill;stop-color:#000000"
           d="m 209.13364,132.39251 c 0.49738,-1.93433 0.94374,-3.90474 1.31515,-5.89653 1.42889,-5.02991 1.84459,-10.03134 1.21793,-14.44489 -3.72272,2.45925 -7.25582,6.2401 -10.1703,10.85394 -1.06143,2.05609 -1.9247,4.2845 -2.53672,6.62246 -0.60212,2.30769 -0.94766,4.67748 -1.01075,7.02784 -0.14591,5.9397 1.66038,11.25535 4.72744,14.6531 1.53681,-3.69758 3.52585,-8.93562 4.84821,-13.18962 0.57376,-1.83604 1.11874,-3.72377 1.60904,-5.6263 z"
           id="path48091"
           inkscape:path-effect="#path-effect48101"
           inkscape:original-d="m 211.66666,112.05103 c 0,0 -12.17084,20.6375 -8.99584,39.15834"
           class="UnoptimicedTransforms"
           transform="translate(49.741672,18.123966)" /><path
           style="opacity:1;fill:#ffffff;fill-opacity:1;stroke:none;stroke-width:6.87917;stroke-linecap:round;stroke-dasharray:none;stroke-opacity:1;paint-order:markers stroke fill;stop-color:#000000"
           d="m 194.15977,192.30968 c 2.69261,-6.28971 3.85484,-12.91277 3.21943,-18.34608 -4.3727,3.28693 -8.36722,8.69616 -11.06491,14.98373 -2.69427,6.29348 -3.85627,12.92058 -3.21848,18.35556 4.37356,-3.29029 8.36787,-8.70315 11.06396,-14.99321 z"
           id="path48103"
           inkscape:path-effect="#path-effect48113"
           inkscape:original-d="m 197.37916,173.96353 c 0,0 -6.35,16.93333 -14.2875,33.3375"
           class="UnoptimicedTransforms"
           transform="translate(49.741672,18.123966)" /><path
           style="opacity:1;fill:#ffffff;fill-opacity:1;stroke:none;stroke-width:6.87917;stroke-linecap:round;stroke-dasharray:none;stroke-opacity:1;paint-order:markers stroke fill;stop-color:#000000"
           d="m 264.11879,184.89937 c -1.02097,1.29142 -1.90193,2.68754 -2.62719,4.16117 0,0 -1e-5,0 -1e-5,0 l 0,0 c -0.77833,1.57992 -1.36327,3.24238 -1.76786,4.92835 l 0,0 0,0 c -0.12676,0.52805 -0.23408,1.06274 -0.32846,1.59417 l 0,0 c -0.0266,0.14832 -0.0521,0.29763 -0.0768,0.44563 0,0 0,0 0,0 -0.008,0.0481 -0.0116,0.0692 -0.0196,0.11736 0,0 0,0 0,0 -0.002,0.0141 -0.005,0.0283 -0.007,0.0424 0.0145,5.7e-4 0.029,9.8e-4 0.0435,0.001 0,0 0,0 0,0 0.0401,0.001 0.0801,0.002 0.12022,0.002 0,0 0,0 0,0 0.15214,0.002 0.30458,-1.3e-4 0.45755,-0.005 l 0,0 c 0.55153,-0.0197 1.10873,-0.0847 1.66723,-0.18684 l 0,0 0,0 c 1.78811,-0.32727 3.56084,-1.05207 5.19683,-2.10698 l 0,0 c 0,0 0,-1e-5 0,-1e-5 1.52041,-0.98021 2.89546,-2.23053 4.04779,-3.68371 2.9916,-3.78159 4.13096,-8.45778 3.27958,-12.54403 -3.85836,1.3535 -7.39148,3.95758 -9.98558,7.23396 z"
           id="path48115"
           inkscape:path-effect="#path-effect48125"
           inkscape:original-d="m 259.29166,196.18853 c 0,0 7.9375,-6.35 14.81666,-18.52083"
           class="UnoptimicedTransforms"
           transform="translate(49.741672,18.123966)" /><path
           style="opacity:1;fill:#ffffff;fill-opacity:1;stroke:none;stroke-width:6.87917;stroke-linecap:round;stroke-dasharray:none;stroke-opacity:1;paint-order:markers stroke fill;stop-color:#000000"
           d="m 294.29964,111.76189 c -1.99407,3.5948 -2.59714,7.75862 -1.67053,11.53391 3.69499,-1.2077 6.91175,-3.91948 8.91051,-7.5117 1.99531,-3.59695 2.5979,-7.76352 1.66905,-11.54047 -3.69553,1.20976 -6.91187,3.92401 -8.90903,7.51826 z"
           id="path48157"
           inkscape:path-effect="#path-effect48167"
           inkscape:original-d="m 292.62916,123.29583 10.58334,-19.05"
           class="UnoptimicedTransforms" /><path
           style="opacity:1;fill:#ffffff;fill-opacity:1;stroke:none;stroke-width:6.87917;stroke-linecap:round;stroke-dasharray:none;stroke-opacity:1;paint-order:markers stroke fill;stop-color:#000000"
           d="m 308.51458,118.27639 c -1.59474,3.19541 -1.78955,6.91778 -0.53964,10.31108 3.46463,-1.03601 6.32568,-3.42527 7.9252,-6.6183 1.59574,-3.19732 1.78983,-6.92217 0.53759,-10.31698 -3.46495,1.03784 -6.32537,3.42932 -7.92315,6.6242 z"
           id="path48169"
           inkscape:path-effect="#path-effect48179"
           inkscape:original-d="m 307.975,128.5875 8.46666,-16.93333"
           class="UnoptimicedTransforms" /><path
           style="opacity:1;fill:#ffffff;fill-opacity:1;stroke:none;stroke-width:6.87917;stroke-linecap:round;stroke-dasharray:none;stroke-opacity:1;paint-order:markers stroke fill;stop-color:#000000"
           d="m 318.9684,132.55565 c -1.39536,2.89579 -1.54341,6.23907 -0.41012,9.26099 3.07117,-0.99216 5.597,-3.18755 6.99662,-6.0813 1.39624,-2.89752 1.54364,-6.24301 0.40826,-9.26624 -3.07144,0.99381 -5.59669,3.19118 -6.99476,6.08655 z"
           id="path48181"
           inkscape:path-effect="#path-effect48191"
           inkscape:original-d="m 318.55833,141.81666 7.40833,-15.34583"
           class="UnoptimicedTransforms" /><path
           style="opacity:1;fill:#ffffff;fill-opacity:1;stroke:none;stroke-width:6.87917;stroke-linecap:round;stroke-dasharray:none;stroke-opacity:1;paint-order:markers stroke fill;stop-color:#000000"
           d="m 326.20728,150.32007 c -1.09595,1.4988 -0.9918,3.77792 0.2885,6.31322 2.80293,0.45908 5.008,-0.12661 6.1081,-1.62239 1.09666,-1.49968 0.99173,-3.78059 -0.29062,-6.31759 -2.80307,-0.45803 -5.00745,0.12927 -6.10598,1.62676 z"
           id="path48193"
           inkscape:path-effect="#path-effect48203"
           inkscape:original-d="m 326.49583,156.63333 5.82083,-7.9375"
           class="UnoptimicedTransforms" /><path
           style="opacity:1;fill:#ffffff;fill-opacity:1;stroke:none;stroke-width:6.87917;stroke-linecap:round;stroke-dasharray:none;stroke-opacity:1;paint-order:markers stroke fill;stop-color:#000000"
           d="m 290.27481,244.52952 c 0.47828,-0.76704 0.90789,-1.58343 1.27802,-2.45213 1.39291,-2.62942 2.01498,-5.55514 1.8022,-8.40357 -2.81682,0.48711 -5.56079,1.88108 -7.8507,3.97007 -0.71883,0.71442 -1.37888,1.52567 -1.95337,2.43124 -2.43681,3.85101 -2.91013,8.85958 -0.66865,12.12097 2.69216,-2.2609 5.52978,-4.68435 7.3925,-7.66658 z"
           id="path48205"
           inkscape:path-effect="#path-effect48215"
           inkscape:original-d="m 293.35502,233.67374 c 0,0 -9.35442,10.28988 -10.47694,18.52178"
           class="UnoptimicedTransforms" /></g><path
         style="display:inline;opacity:1;fill:none;fill-opacity:1;stroke:#ffffff;stroke-width:11.7421;stroke-linecap:round;stroke-dasharray:none;stroke-opacity:1;paint-order:markers stroke fill;stop-color:#000000"
         d="m 302.59762,59.520035 c 0,0 5.85341,0 11.78659,0 15.96232,0 16.83798,2.99342 16.83798,16.83798 V 266.5512 c 0,14.7119 -0.39246,22.58493 -27.22218,22.58493 h -186.7591 c -25.484726,0 -25.518986,-0.26055 -25.518986,-22.89975 V 77.903285 c 0,0 -1.35107,-18.46739 10.662146,-18.46739 12.01322,0 15.71157,0 15.71157,0"
         id="path45653"
         sodipodi:nodetypes="csszszzczc" /><rect
         style="display:inline;opacity:1;fill:none;fill-opacity:1;stroke:#ffffff;stroke-width:15.8371;stroke-linecap:round;stroke-dasharray:none;stroke-opacity:1;paint-order:markers stroke fill;stop-color:#000000"
         id="rect48217"
         width="131.21378"
         height="62.578876"
         x="143.18405"
         y="96.436508"
         ry="12.11204" /></g></g></svg>
