<?xml version="1.0" encoding="UTF-8" standalone="no"?>
<!-- Created with Inkscape (http://www.inkscape.org/) -->

<svg
   width="63.029797mm"
   height="47.644356mm"
   viewBox="0 0 63.029797 47.644356"
   version="1.1"
   id="svg1112"
   xml:space="preserve"
   xmlns="http://www.w3.org/2000/svg"
   xmlns:svg="http://www.w3.org/2000/svg"><defs
     id="defs1109" /><g
     id="layer3"
     transform="translate(74.622965,-11.896374)"><g
       style="fill:none"
       id="g2227"
       transform="matrix(0.26458333,0,0,0.26458333,-36.931669,11.824538)"><path
         d="m 82.2748,3.03192 c 0,0 2.2,0 4.43,0 5.9994,0 6.3285,1.13557 6.3285,6.38756 V 81.5701 c 0,5.581 -0.1475,8.5676 -10.2314,8.5676 H 12.6084 c -9.5784,0 -9.59128,-0.0988 -9.59128,-8.6871 V 10.0057 c 0,0 -0.5078,-7.0057 4.00737,-7.0057 4.51521,0 5.90521,0 5.90521,0"
         stroke="#ffffff"
         stroke-width="5.45698"
         stroke-linecap="round"
         id="path2212" /><path
         d="M 67.1236,17.0364 H 26.9115 c -2.5142,0 -4.5523,2.0572 -4.5523,4.5948 v 14.55 c 0,2.5377 2.0381,4.5948 4.5523,4.5948 h 40.2121 c 2.5142,0 4.5523,-2.0571 4.5523,-4.5948 v -14.55 c 0,-2.5376 -2.0381,-4.5948 -4.5523,-4.5948 z"
         stroke="#ffffff"
         stroke-width="7.36007"
         stroke-linecap="round"
         id="path2214" /><path
         d="m 36.4388,32.5227 v 1.6335 h -5.481 v -1.6335 h 1.917 v -4.0905 c -0.081,0.108 -0.207,0.2205 -0.378,0.3375 -0.171,0.108 -0.3645,0.2115 -0.5805,0.3105 -0.216,0.099 -0.432,0.18 -0.648,0.243 -0.216,0.063 -0.4095,0.0945 -0.5805,0.0945 v -1.6875 c 0.162,0 0.3555,-0.0495 0.5805,-0.1485 0.234,-0.108 0.4635,-0.234 0.6885,-0.378 0.234,-0.144 0.432,-0.2835 0.594,-0.4185 0.171,-0.144 0.279,-0.2565 0.324,-0.3375 h 1.8495 v 6.075 z m 7.9803,-1.566 c 0,-0.603 -0.1485,-1.143 -0.4455,-1.62 -0.288,-0.486 -0.684,-0.8685 -1.188,-1.1475 -0.504,-0.288 -1.0755,-0.432 -1.7145,-0.432 -0.297,0 -0.576,0.045 -0.837,0.135 -0.261,0.081 -0.4905,0.2025 -0.6885,0.3645 -0.198,0.153 -0.36,0.3375 -0.486,0.5535 0.018,-0.576 0.108,-1.0665 0.27,-1.4715 0.162,-0.414 0.3915,-0.729 0.6885,-0.945 0.297,-0.216 0.648,-0.324 1.053,-0.324 0.396,0 0.765,0.099 1.107,0.297 0.342,0.189 0.621,0.45 0.837,0.783 l 1.0395,-1.134 c -0.351,-0.486 -0.783,-0.8595 -1.296,-1.1205 -0.504,-0.261 -1.0575,-0.3915 -1.6605,-0.3915 -0.756,0 -1.413,0.207 -1.971,0.621 -0.558,0.405 -0.99,1.0125 -1.296,1.8225 -0.297,0.801 -0.4455,1.782 -0.4455,2.943 0,0.918 0.144,1.7055 0.432,2.3625 0.288,0.657 0.693,1.161 1.215,1.512 0.531,0.351 1.1565,0.5266 1.8765,0.5266 0.666,0 1.26,-0.1486 1.782,-0.4456 0.531,-0.297 0.9495,-0.6975 1.2555,-1.2015 0.315,-0.504 0.4725,-1.0665 0.4725,-1.6875 z m -3.51,1.809 c -0.306,0 -0.594,-0.081 -0.864,-0.243 -0.27,-0.171 -0.486,-0.3915 -0.648,-0.6615 -0.162,-0.279 -0.243,-0.5805 -0.243,-0.9045 0,-0.324 0.0765,-0.6165 0.2295,-0.8775 0.162,-0.27 0.378,-0.4815 0.648,-0.6345 0.27,-0.162 0.567,-0.243 0.891,-0.243 0.324,0 0.6165,0.081 0.8775,0.243 0.27,0.153 0.486,0.3645 0.648,0.6345 0.162,0.261 0.243,0.5535 0.243,0.8775 0,0.324 -0.081,0.6255 -0.243,0.9045 -0.162,0.27 -0.378,0.4905 -0.648,0.6615 -0.27,0.162 -0.567,0.243 -0.891,0.243 z m 11.6832,-2.565 c 0,0.792 -0.153,1.4985 -0.459,2.1195 -0.297,0.612 -0.711,1.0935 -1.242,1.4445 -0.522,0.351 -1.116,0.5266 -1.782,0.5266 -0.666,0 -1.2645,-0.1756 -1.7955,-0.5266 -0.522,-0.351 -0.936,-0.8325 -1.242,-1.4445 -0.297,-0.621 -0.4455,-1.3275 -0.4455,-2.1195 0,-0.792 0.1485,-1.494 0.4455,-2.106 0.306,-0.621 0.72,-1.107 1.242,-1.458 0.531,-0.36 1.1295,-0.54 1.7955,-0.54 0.666,0 1.26,0.18 1.782,0.54 0.531,0.351 0.945,0.837 1.242,1.458 0.306,0.612 0.459,1.314 0.459,2.106 z m -1.8225,0 c 0,-0.486 -0.072,-0.909 -0.216,-1.269 -0.135,-0.369 -0.3285,-0.657 -0.5805,-0.864 -0.252,-0.207 -0.54,-0.3105 -0.864,-0.3105 -0.333,0 -0.6255,0.1035 -0.8775,0.3105 -0.252,0.207 -0.45,0.495 -0.594,0.864 -0.135,0.36 -0.2025,0.783 -0.2025,1.269 0,0.486 0.0675,0.909 0.2025,1.269 0.144,0.36 0.342,0.6435 0.594,0.8505 0.252,0.207 0.5445,0.3105 0.8775,0.3105 0.324,0 0.6075,-0.1035 0.8505,-0.3105 0.252,-0.207 0.45,-0.4905 0.594,-0.8505 0.144,-0.369 0.216,-0.792 0.216,-1.269 z m 3.2705,3.9555 v -1.944 h 1.485 v 1.944 z m 5.7863,2.0116 c -0.693,0 -1.3185,-0.1485 -1.8765,-0.4455 -0.558,-0.297 -0.981,-0.702 -1.269,-1.215 l 1.0395,-1.0801 c 0.252,0.351 0.567,0.63 0.945,0.8371 0.378,0.207 0.7695,0.3105 1.1745,0.3105 0.324,0 0.6075,-0.0675 0.8505,-0.2025 0.252,-0.135 0.45,-0.3241 0.594,-0.5671 0.144,-0.243 0.216,-0.522 0.216,-0.837 0,-0.315 -0.0675,-0.5895 -0.2025,-0.8235 -0.135,-0.234 -0.3195,-0.414 -0.5535,-0.54 -0.234,-0.135 -0.4995,-0.2025 -0.7965,-0.2025 -0.297,0 -0.576,0.0675 -0.837,0.2025 -0.252,0.126 -0.4545,0.3105 -0.6075,0.5535 h -1.5795 l 1.107,-5.7105 h 4.725 v 1.647 h -3.4155 l -0.3915,2.1465 c 0.117,-0.108 0.279,-0.198 0.486,-0.27 0.207,-0.081 0.4635,-0.1215 0.7695,-0.1215 0.603,0 1.143,0.1305 1.62,0.3915 0.477,0.261 0.8505,0.6255 1.1205,1.0935 0.27,0.459 0.405,0.99 0.405,1.593 0,0.639 -0.153,1.2015 -0.459,1.6876 -0.306,0.495 -0.7245,0.8775 -1.2555,1.1475 -0.531,0.27 -1.134,0.405 -1.809,0.405 z"
         fill="#ffffff"
         id="path2216" /></g><g
       style="fill:none"
       id="g2244"
       transform="matrix(0.26458333,0,0,0.26458333,-34.347452,40.986828)"><path
         d="m 14.3438,70.125 c -1.2751,0 -2.3907,-0.4781 -3.3469,-1.4344 C 10.0406,67.7344 9.5625,66.6188 9.5625,65.3438 V 15.9375 c 0,-1.275 0.4781,-2.3906 1.4344,-3.3469 0.9562,-0.9562 2.0718,-1.4344 3.3469,-1.4344 h 5.1796 V 6.375 h 5.1797 v 4.7812 H 51.7969 V 6.375 h 5.1797 v 4.7812 h 5.1796 c 1.2751,0 2.3907,0.4782 3.3469,1.4344 0.9563,0.9563 1.4344,2.0719 1.4344,3.3469 v 49.4063 c 0,1.275 -0.4781,2.3906 -1.4344,3.3468 -0.9562,0.9563 -2.0718,1.4344 -3.3469,1.4344 z m 0,-4.7812 H 62.1562 V 31.0781 H 14.3438 Z m 0,-39.0469 H 62.1562 V 15.9375 H 14.3438 Z"
         fill="#ffffff"
         id="path2229" /><path
         d="m 29.856,23.1511 c 0.078,0.054 0.216,0.12 0.414,0.198 0.198,0.072 0.432,0.108 0.702,0.108 0.234,0 0.426,-0.039 0.576,-0.117 0.15,-0.084 0.264,-0.207 0.342,-0.369 0.084,-0.162 0.138,-0.372 0.162,-0.63 0.03,-0.258 0.045,-0.567 0.045,-0.927 v -3.348 h 1.242 v 3.249 c 0,0.48 -0.027,0.918 -0.081,1.314 -0.054,0.396 -0.159,0.738 -0.315,1.026 -0.156,0.288 -0.393,0.51 -0.711,0.666 -0.312,0.156 -0.729,0.234 -1.251,0.234 -0.288,0 -0.546,-0.033 -0.774,-0.099 -0.228,-0.066 -0.438,-0.165 -0.63,-0.297 z m 6.3237,-5.085 h 1.26 l 2.349,6.39 h -1.278 l -0.594,-1.593 h -2.232 l -0.585,1.593 h -1.278 z m 1.512,3.924 -0.882,-2.637 -0.918,2.637 z m 4.0398,-1.638 v 4.104 h -1.242 v -6.39 h 0.99 l 3.303,4.212 v -4.203 h 1.242 v 6.381 h -1.035 z"
         fill="#ffffff"
         id="path2231" /><path
         d="m 39.216,55.932 c -0.924,0 -1.758,-0.198 -2.502,-0.594 -0.744,-0.396 -1.308,-0.936 -1.692,-1.62 l 1.386,-1.44 c 0.336,0.468 0.756,0.84 1.26,1.116 0.504,0.276 1.026,0.414 1.566,0.414 0.432,0 0.81,-0.09 1.134,-0.27 0.336,-0.18 0.6,-0.432 0.792,-0.756 0.192,-0.324 0.288,-0.696 0.288,-1.116 0,-0.42 -0.09,-0.786 -0.27,-1.098 -0.18,-0.312 -0.426,-0.552 -0.738,-0.72 -0.312,-0.18 -0.666,-0.27 -1.062,-0.27 -0.396,0 -0.768,0.09 -1.116,0.27 -0.336,0.168 -0.606,0.414 -0.81,0.738 h -2.106 l 1.476,-7.614 h 6.3 v 2.196 h -4.554 l -0.522,2.862 c 0.156,-0.144 0.372,-0.264 0.648,-0.36 0.276,-0.108 0.618,-0.162 1.026,-0.162 0.804,0 1.524,0.174 2.16,0.522 0.636,0.348 1.134,0.834 1.494,1.458 0.36,0.612 0.54,1.32 0.54,2.124 0,0.852 -0.204,1.602 -0.612,2.25 -0.408,0.66 -0.966,1.17 -1.674,1.53 -0.708,0.36 -1.512,0.54 -2.412,0.54 z"
         fill="#ffffff"
         id="path2233" /></g><g
       style="fill:none"
       id="g2261"
       transform="matrix(0.26458333,0,0,0.26458333,-74.693523,11.824538)"><path
         d="m 82.2748,3.03192 c 0,0 2.2,0 4.43,0 5.9994,0 6.3285,1.13557 6.3285,6.38756 V 81.5701 c 0,5.581 -0.1475,8.5676 -10.2314,8.5676 H 12.6084 c -9.5784,0 -9.59128,-0.0988 -9.59128,-8.6871 V 10.0057 c 0,0 -0.5078,-7.0057 4.00737,-7.0057 4.51521,0 5.90521,0 5.90521,0"
         stroke="#ffffff"
         stroke-width="5.45698"
         stroke-linecap="round"
         id="path2246" /><path
         d="M 67.1236,17.0364 H 26.9115 c -2.5142,0 -4.5523,2.0572 -4.5523,4.5948 v 14.55 c 0,2.5377 2.0381,4.5948 4.5523,4.5948 h 40.2121 c 2.5142,0 4.5523,-2.0571 4.5523,-4.5948 v -14.55 c 0,-2.5376 -2.0381,-4.5948 -4.5523,-4.5948 z"
         stroke="#ffffff"
         stroke-width="7.36007"
         stroke-linecap="round"
         id="path2248" /><path
         d="m 36.4388,32.5227 v 1.6335 h -5.481 v -1.6335 h 1.917 v -4.0905 c -0.081,0.108 -0.207,0.2205 -0.378,0.3375 -0.171,0.108 -0.3645,0.2115 -0.5805,0.3105 -0.216,0.099 -0.432,0.18 -0.648,0.243 -0.216,0.063 -0.4095,0.0945 -0.5805,0.0945 v -1.6875 c 0.162,0 0.3555,-0.0495 0.5805,-0.1485 0.234,-0.108 0.4635,-0.234 0.6885,-0.378 0.234,-0.144 0.432,-0.2835 0.594,-0.4185 0.171,-0.144 0.279,-0.2565 0.324,-0.3375 h 1.8495 v 6.075 z m 3.8628,3.6451 c -0.693,0 -1.3185,-0.1485 -1.8765,-0.4455 -0.558,-0.297 -0.981,-0.702 -1.269,-1.215 l 1.0395,-1.0801 c 0.252,0.351 0.567,0.63 0.945,0.8371 0.378,0.207 0.7695,0.3105 1.1745,0.3105 0.324,0 0.6075,-0.0675 0.8505,-0.2025 0.252,-0.135 0.45,-0.3241 0.594,-0.5671 0.144,-0.243 0.216,-0.522 0.216,-0.837 0,-0.315 -0.0675,-0.5895 -0.2025,-0.8235 -0.135,-0.234 -0.3195,-0.414 -0.5535,-0.54 -0.234,-0.135 -0.4995,-0.2025 -0.7965,-0.2025 -0.297,0 -0.576,0.0675 -0.837,0.2025 -0.252,0.126 -0.4545,0.3105 -0.6075,0.5535 h -1.5795 l 1.107,-5.7105 h 4.725 v 1.647 h -3.4155 l -0.3915,2.1465 c 0.117,-0.108 0.279,-0.198 0.486,-0.27 0.207,-0.081 0.4635,-0.1215 0.7695,-0.1215 0.603,0 1.143,0.1305 1.62,0.3915 0.477,0.261 0.8505,0.6255 1.1205,1.0935 0.27,0.459 0.405,0.99 0.405,1.593 0,0.639 -0.153,1.2015 -0.459,1.6876 -0.306,0.495 -0.7245,0.8775 -1.2555,1.1475 -0.531,0.27 -1.134,0.405 -1.809,0.405 z m 4.3701,-6.3856 c 0,0.603 0.144,1.1475 0.432,1.6335 0.297,0.477 0.6975,0.8595 1.2015,1.1475 0.513,0.279 1.08,0.4185 1.701,0.4185 0.306,0 0.585,-0.0405 0.837,-0.1215 0.261,-0.09 0.4905,-0.216 0.6885,-0.378 0.207,-0.162 0.369,-0.3465 0.486,-0.5535 -0.009,0.576 -0.099,1.071 -0.27,1.485 -0.162,0.405 -0.3915,0.7155 -0.6885,0.9316 -0.288,0.216 -0.6345,0.324 -1.0395,0.324 -0.396,0 -0.7695,-0.099 -1.1205,-0.297 -0.342,-0.189 -0.621,-0.4501 -0.837,-0.7831 l -1.0395,1.1341 c 0.351,0.486 0.783,0.8595 1.296,1.1205 0.513,0.261 1.071,0.3915 1.674,0.3915 0.756,0 1.413,-0.207 1.971,-0.621 0.558,-0.414 0.9855,-1.0215 1.2825,-1.8226 0.306,-0.801 0.459,-1.782 0.459,-2.943 0,-0.927 -0.144,-1.7145 -0.432,-2.3625 -0.288,-0.657 -0.6975,-1.161 -1.2285,-1.512 -0.522,-0.351 -1.1475,-0.5265 -1.8765,-0.5265 -0.657,0 -1.251,0.1485 -1.782,0.4455 -0.531,0.297 -0.9495,0.6975 -1.2555,1.2015 -0.306,0.504 -0.459,1.0665 -0.459,1.6875 z m 3.4965,-1.809 c 0.315,0 0.6075,0.0855 0.8775,0.2565 0.27,0.162 0.486,0.3825 0.648,0.6615 0.162,0.27 0.243,0.567 0.243,0.891 0,0.324 -0.081,0.621 -0.243,0.891 -0.162,0.261 -0.378,0.4725 -0.648,0.6345 -0.261,0.153 -0.5535,0.2295 -0.8775,0.2295 -0.324,0 -0.621,-0.0765 -0.891,-0.2295 -0.27,-0.162 -0.486,-0.3735 -0.648,-0.6345 -0.153,-0.27 -0.2295,-0.567 -0.2295,-0.891 0,-0.333 0.081,-0.6345 0.243,-0.9045 0.162,-0.27 0.378,-0.486 0.648,-0.648 0.27,-0.171 0.5625,-0.2565 0.8775,-0.2565 z m 4.8043,6.183 v -1.944 h 1.485 v 1.944 z m 5.7862,2.0116 c -0.693,0 -1.3185,-0.1485 -1.8765,-0.4455 -0.558,-0.297 -0.981,-0.702 -1.269,-1.215 l 1.0395,-1.0801 c 0.252,0.351 0.567,0.63 0.945,0.8371 0.378,0.207 0.7695,0.3105 1.1745,0.3105 0.324,0 0.6075,-0.0675 0.8505,-0.2025 0.252,-0.135 0.45,-0.3241 0.594,-0.5671 0.144,-0.243 0.216,-0.522 0.216,-0.837 0,-0.315 -0.0675,-0.5895 -0.2025,-0.8235 -0.135,-0.234 -0.3195,-0.414 -0.5535,-0.54 -0.234,-0.135 -0.4995,-0.2025 -0.7965,-0.2025 -0.297,0 -0.576,0.0675 -0.837,0.2025 -0.252,0.126 -0.4545,0.3105 -0.6075,0.5535 h -1.5795 l 1.107,-5.7105 h 4.725 v 1.647 h -3.4155 l -0.3915,2.1465 c 0.117,-0.108 0.279,-0.198 0.486,-0.27 0.207,-0.081 0.4635,-0.1215 0.7695,-0.1215 0.603,0 1.143,0.1305 1.62,0.3915 0.477,0.261 0.8505,0.6255 1.1205,1.0935 0.27,0.459 0.405,0.99 0.405,1.593 0,0.639 -0.153,1.2015 -0.459,1.6876 -0.306,0.495 -0.7245,0.8775 -1.2555,1.1475 -0.531,0.27 -1.134,0.405 -1.809,0.405 z"
         fill="#ffffff"
         id="path2250" /></g><g
       style="fill:none"
       id="g2278"
       transform="matrix(0.26458333,0,0,0.26458333,-72.109307,40.986828)"><path
         d="m 14.3438,70.125 c -1.2751,0 -2.3907,-0.4781 -3.3469,-1.4344 C 10.0406,67.7344 9.5625,66.6188 9.5625,65.3438 V 15.9375 c 0,-1.275 0.4781,-2.3906 1.4344,-3.3469 0.9562,-0.9562 2.0718,-1.4344 3.3469,-1.4344 h 5.1796 V 6.375 h 5.1797 v 4.7812 H 51.7969 V 6.375 h 5.1797 v 4.7812 h 5.1796 c 1.2751,0 2.3907,0.4782 3.3469,1.4344 0.9563,0.9563 1.4344,2.0719 1.4344,3.3469 v 49.4063 c 0,1.275 -0.4781,2.3906 -1.4344,3.3468 -0.9562,0.9563 -2.0718,1.4344 -3.3469,1.4344 z m 0,-4.7812 H 62.1562 V 31.0781 H 14.3438 Z m 0,-39.0469 H 62.1562 V 15.9375 H 14.3438 Z"
         fill="#ffffff"
         id="path2263" /><path
         d="m 29.856,23.1511 c 0.078,0.054 0.216,0.12 0.414,0.198 0.198,0.072 0.432,0.108 0.702,0.108 0.234,0 0.426,-0.039 0.576,-0.117 0.15,-0.084 0.264,-0.207 0.342,-0.369 0.084,-0.162 0.138,-0.372 0.162,-0.63 0.03,-0.258 0.045,-0.567 0.045,-0.927 v -3.348 h 1.242 v 3.249 c 0,0.48 -0.027,0.918 -0.081,1.314 -0.054,0.396 -0.159,0.738 -0.315,1.026 -0.156,0.288 -0.393,0.51 -0.711,0.666 -0.312,0.156 -0.729,0.234 -1.251,0.234 -0.288,0 -0.546,-0.033 -0.774,-0.099 -0.228,-0.066 -0.438,-0.165 -0.63,-0.297 z m 6.3237,-5.085 h 1.26 l 2.349,6.39 h -1.278 l -0.594,-1.593 h -2.232 l -0.585,1.593 h -1.278 z m 1.512,3.924 -0.882,-2.637 -0.918,2.637 z m 4.0398,-1.638 v 4.104 h -1.242 v -6.39 h 0.99 l 3.303,4.212 v -4.203 h 1.242 v 6.381 h -1.035 z"
         fill="#ffffff"
         id="path2265" /><path
         d="M 40.116,55.536 V 52.854 H 34.86 v -2.142 l 6.03,-7.74 h 1.638 v 7.722 h 1.584 v 2.16 h -1.584 v 2.682 z m -2.844,-4.842 h 3.114 v -4.068 z"
         fill="#ffffff"
         id="path2267" /></g></g></svg>
