<?xml version="1.0" encoding="UTF-8" standalone="no"?>
<!-- Created with Inkscape (http://www.inkscape.org/) -->

<svg
   width="25.268143mm"
   height="47.64436mm"
   viewBox="0 0 25.268143 47.64436"
   version="1.1"
   id="svg1112"
   xml:space="preserve"
   inkscape:version="1.2.1 (9c6d41e4, 2022-07-14)"
   sodipodi:docname="slider_icons.svg"
   xmlns:inkscape="http://www.inkscape.org/namespaces/inkscape"
   xmlns:sodipodi="http://sodipodi.sourceforge.net/DTD/sodipodi-0.dtd"
   xmlns="http://www.w3.org/2000/svg"
   xmlns:svg="http://www.w3.org/2000/svg"><sodipodi:namedview
     id="namedview1114"
     pagecolor="#ffffff"
     bordercolor="#999999"
     borderopacity="1"
     inkscape:showpageshadow="0"
     inkscape:pageopacity="0"
     inkscape:pagecheckerboard="true"
     inkscape:deskcolor="#d1d1d1"
     inkscape:document-units="mm"
     showgrid="false"
     inkscape:zoom="1.7219913"
     inkscape:cx="372.82418"
     inkscape:cy="211.9639"
     inkscape:window-width="1396"
     inkscape:window-height="796"
     inkscape:window-x="213"
     inkscape:window-y="152"
     inkscape:window-maximized="0"
     inkscape:current-layer="layer1" /><defs
     id="defs1109" /><g
     inkscape:label="Layer 1"
     inkscape:groupmode="layer"
     id="layer1"
     style="fill:#000000;stroke:#000000;stroke-opacity:1"
     transform="translate(-92.365809,-22.454484)"><g
       style="fill:#ffffff;fill-opacity:1;stroke:none"
       id="g1611"
       transform="matrix(0.26458333,0,0,0.26458333,92.295471,22.382653)"
       inkscape:export-filename="../../g1611.svg"
       inkscape:export-xdpi="96"
       inkscape:export-ydpi="96"><path
         style="color:#000000;fill:#ffffff;fill-opacity:1;stroke:none;stroke-linecap:round;-inkscape-stroke:none"
         d="m 7.0253906,0.27148438 c -1.8343744,0 -3.5448414,0.86155542 -4.5664062,2.00390622 C 1.4374196,3.4177414 0.96526092,4.6984326 0.6796875,5.8417969 0.10854066,8.1285255 0.29492188,10.203125 0.29492188,10.203125 l -0.005859,-0.197266 v 71.445313 c 0,2.14773 -0.015141,3.807848 0.171875,5.316406 0.18701597,1.508558 0.65772262,3.106878 1.91796882,4.259766 1.2602461,1.152888 2.806773,1.504247 4.4003906,1.673828 1.5936175,0.169581 3.4307847,0.166015 5.8300777,0.166015 h 70.193359 c 5.311324,0 8.749423,-0.674805 10.925782,-3.097656 2.176359,-2.42285 2.033203,-5.384684 2.033203,-8.199219 V 9.4199219 c 0,-2.6829832 0.189359,-4.9511104 -1.59961,-6.9726563 C 93.267625,1.4364927 92.015226,0.88722166 90.798828,0.625 89.58243,0.36277834 88.291002,0.30273437 86.705078,0.30273438 H 82.275391 A 2.7284901,2.7284901 0 0 0 79.546875,3.03125 2.7284901,2.7284901 0 0 0 82.275391,5.7597656 h 4.429687 c 1.413774,0 2.412675,0.084397 2.945313,0.1992188 0.532638,0.114822 0.488066,0.1758514 0.425781,0.1054687 -0.12457,-0.1407653 0.228515,0.7864672 0.228515,3.3554688 V 81.570312 c 0,2.766461 -0.216402,4.086988 -0.634765,4.552735 -0.418363,0.465746 -2.094622,1.287109 -6.867188,1.287109 H 12.609375 c -2.389902,0 -4.1492333,-0.01742 -5.2519531,-0.134765 C 6.2547021,87.158047 6.0027727,86.947314 6.0625,87.001953 6.122227,87.056593 5.991677,87.021123 5.8769531,86.095703 5.7622294,85.170288 5.7460937,83.597538 5.7460937,81.451172 V 9.90625 l -0.00781,-0.097656 c 0,0 -0.067417,-1.4284134 0.2363282,-2.6445313 0.1518724,-0.6080589 0.3996213,-1.0787834 0.5527343,-1.25 C 6.6804568,5.7428459 6.6021823,5.7285156 7.0253906,5.7285156 H 12.929688 A 2.7284901,2.7284901 0 0 0 15.658203,3 2.7284901,2.7284901 0 0 0 12.929688,0.27148438 Z"
         id="path1596" /><path
         style="color:#000000;fill:#ffffff;fill-opacity:1;stroke:none;stroke-linecap:round;-inkscape-stroke:none"
         d="m 26.912109,13.355469 c -4.521514,0 -8.232422,3.767356 -8.232422,8.27539 v 14.550782 c 0,4.508034 3.710908,8.273437 8.232422,8.273437 h 40.210938 c 4.521494,0 8.232422,-3.765306 8.232422,-8.273437 V 21.630859 c 0,-4.508131 -3.710928,-8.27539 -8.232422,-8.27539 z m 0,7.361328 h 40.210938 c 0.506701,0 0.873047,0.346999 0.873047,0.914062 v 14.550782 c 0,0.567063 -0.366346,0.914062 -0.873047,0.914062 H 26.912109 c -0.506881,0 -0.873047,-0.346902 -0.873047,-0.914062 V 21.630859 c 0,-0.56716 0.366166,-0.914062 0.873047,-0.914062 z"
         id="path1598" /><g
         id="path1600"
         style="fill:#ffffff;fill-opacity:1;stroke:none"><path
           style="color:#000000;fill:#ffffff;fill-opacity:1;stroke:none;-inkscape-stroke:none"
           d="m 36.4388,32.5227 v 1.6335 h -5.481 v -1.6335 h 1.917 v -4.0905 c -0.081,0.108 -0.207,0.2205 -0.378,0.3375 -0.171,0.108 -0.3645,0.2115 -0.5805,0.3105 -0.216,0.099 -0.432,0.18 -0.648,0.243 -0.216,0.063 -0.4095,0.0945 -0.5805,0.0945 v -1.6875 c 0.162,0 0.3555,-0.0495 0.5805,-0.1485 0.234,-0.108 0.4635,-0.234 0.6885,-0.378 0.234,-0.144 0.432,-0.2835 0.594,-0.4185 0.171,-0.144 0.279,-0.2565 0.324,-0.3375 h 1.8495 v 6.075 z m 7.9804,-1.566 c 0,-0.603 -0.1485,-1.143 -0.4455,-1.62 -0.288,-0.486 -0.684,-0.8685 -1.188,-1.1475 -0.504,-0.288 -1.0755,-0.432 -1.7145,-0.432 -0.297,0 -0.576,0.045 -0.837,0.135 -0.261,0.081 -0.4905,0.2025 -0.6885,0.3645 -0.198,0.153 -0.36,0.3375 -0.486,0.5535 0.018,-0.576 0.108,-1.0665 0.27,-1.4715 0.162,-0.414 0.3915,-0.729 0.6885,-0.945 0.297,-0.216 0.648,-0.324 1.053,-0.324 0.396,0 0.765,0.099 1.107,0.297 0.342,0.189 0.621,0.45 0.837,0.783 l 1.0395,-1.134 c -0.351,-0.486 -0.783,-0.8595 -1.296,-1.1205 -0.504,-0.261 -1.0575,-0.3915 -1.6605,-0.3915 -0.756,0 -1.413,0.207 -1.971,0.621 -0.558,0.405 -0.99,1.0125 -1.296,1.8225 -0.297,0.801 -0.4455,1.782 -0.4455,2.943 0,0.918 0.144,1.7055 0.432,2.3625 0.288,0.657 0.693,1.161 1.215,1.512 0.531,0.351 1.1565,0.5266 1.8765,0.5266 0.666,0 1.26,-0.1486 1.782,-0.4456 0.531,-0.297 0.9495,-0.6975 1.2555,-1.2015 0.315,-0.504 0.4725,-1.0665 0.4725,-1.6875 z m -3.51,1.809 c -0.306,0 -0.594,-0.081 -0.864,-0.243 -0.27,-0.171 -0.486,-0.3915 -0.648,-0.6615 -0.162,-0.279 -0.243,-0.5805 -0.243,-0.9045 0,-0.324 0.0765,-0.6165 0.2295,-0.8775 0.162,-0.27 0.378,-0.4815 0.648,-0.6345 0.27,-0.162 0.567,-0.243 0.891,-0.243 0.324,0 0.6165,0.081 0.8775,0.243 0.27,0.153 0.486,0.3645 0.648,0.6345 0.162,0.261 0.243,0.5535 0.243,0.8775 0,0.324 -0.081,0.6255 -0.243,0.9045 -0.162,0.27 -0.378,0.4905 -0.648,0.6615 -0.27,0.162 -0.567,0.243 -0.891,0.243 z m 11.6831,-2.565 c 0,0.792 -0.153,1.4985 -0.459,2.1195 -0.297,0.612 -0.711,1.0935 -1.242,1.4445 -0.522,0.351 -1.116,0.5266 -1.782,0.5266 -0.666,0 -1.2645,-0.1756 -1.7955,-0.5266 -0.522,-0.351 -0.936,-0.8325 -1.242,-1.4445 -0.297,-0.621 -0.4455,-1.3275 -0.4455,-2.1195 0,-0.792 0.1485,-1.494 0.4455,-2.106 0.306,-0.621 0.72,-1.107 1.242,-1.458 0.531,-0.36 1.1295,-0.54 1.7955,-0.54 0.666,0 1.26,0.18 1.782,0.54 0.531,0.351 0.945,0.837 1.242,1.458 0.306,0.612 0.459,1.314 0.459,2.106 z m -1.8225,0 c 0,-0.486 -0.072,-0.909 -0.216,-1.269 -0.135,-0.369 -0.3285,-0.657 -0.5805,-0.864 -0.252,-0.207 -0.54,-0.3105 -0.864,-0.3105 -0.333,0 -0.6255,0.1035 -0.8775,0.3105 -0.252,0.207 -0.45,0.495 -0.594,0.864 -0.135,0.36 -0.2025,0.783 -0.2025,1.269 0,0.486 0.0675,0.909 0.2025,1.269 0.144,0.36 0.342,0.6435 0.594,0.8505 0.252,0.207 0.5445,0.3105 0.8775,0.3105 0.324,0 0.6075,-0.1035 0.8505,-0.3105 0.252,-0.207 0.45,-0.4905 0.594,-0.8505 0.144,-0.369 0.216,-0.792 0.216,-1.269 z m 3.2705,3.9555 v -1.944 h 1.485 v 1.944 z m 5.7863,2.0116 c -0.693,0 -1.3185,-0.1485 -1.8765,-0.4455 -0.558,-0.297 -0.981,-0.702 -1.269,-1.215 l 1.0395,-1.0801 c 0.252,0.351 0.567,0.63 0.945,0.8371 0.378,0.207 0.7695,0.3105 1.1745,0.3105 0.324,0 0.6075,-0.0675 0.8505,-0.2025 0.252,-0.135 0.45,-0.3241 0.594,-0.5671 0.144,-0.243 0.216,-0.522 0.216,-0.837 0,-0.315 -0.0675,-0.5895 -0.2025,-0.8235 -0.135,-0.234 -0.3195,-0.414 -0.5535,-0.54 -0.234,-0.135 -0.4995,-0.2025 -0.7965,-0.2025 -0.297,0 -0.576,0.0675 -0.837,0.2025 -0.252,0.126 -0.4545,0.3105 -0.6075,0.5535 h -1.5795 l 1.107,-5.7105 h 4.725 v 1.647 h -3.4155 l -0.3915,2.1465 c 0.117,-0.108 0.279,-0.198 0.486,-0.27 0.207,-0.081 0.4635,-0.1215 0.7695,-0.1215 0.603,0 1.143,0.1305 1.62,0.3915 0.477,0.261 0.8505,0.6255 1.1205,1.0935 0.27,0.459 0.405,0.99 0.405,1.593 0,0.639 -0.153,1.2015 -0.459,1.6876 -0.306,0.495 -0.7245,0.8775 -1.2555,1.1475 -0.531,0.27 -1.134,0.405 -1.809,0.405 z"
           id="path1640" /><path
           style="color:#000000;fill:#ffffff;fill-opacity:1;stroke:none;-inkscape-stroke:none"
           d="m 41.097656,24.003906 c -0.845732,0 -1.619586,0.240141 -2.263672,0.716797 -0.651077,0.472557 -1.138931,1.170609 -1.470703,2.048828 v 0.002 0.002 c -0.324376,0.874833 -0.478515,1.913554 -0.478515,3.117188 0,0.970287 0.152231,1.827076 0.474609,2.5625 0.31945,0.728745 0.78799,1.318716 1.394531,1.726562 l 0.002,0.002 h 0.002 c 0.617688,0.408301 1.351049,0.609375 2.152344,0.609375 0.739703,0 1.424382,-0.168215 2.025391,-0.509766 0.598786,-0.334914 1.085779,-0.798829 1.435547,-1.373047 0.363246,-0.581879 0.548828,-1.246285 0.548828,-1.951172 0,-0.682928 -0.174746,-1.322881 -0.519531,-1.878906 -0.317007,-0.533088 -0.772359,-0.952472 -1.3125,-1.267578 l 1.611328,-1.757813 -0.238282,-0.330078 C 44.067769,25.178279 43.571019,24.748248 42.988375,24.451312 42.41207,24.152868 41.772889,24.004046 41.09775,24.004046 Z m 0,1 c 0.53086,0 0.999948,0.112382 1.431641,0.335938 h 0.002 v 0.002 c 0.322929,0.164297 0.56736,0.436136 0.816406,0.705078 l -0.36914,0.404297 C 42.7965,26.272264 42.647547,26.056664 42.421922,25.931688 42.009315,25.69445 41.546949,25.570359 41.070359,25.570359 c -0.493888,0 -0.961272,0.140337 -1.345703,0.419922 -0.383773,0.279109 -0.67033,0.680932 -0.859375,1.16211 -2.18e-4,5.46e-4 2.19e-4,0.0014 0,0.002 -0.18955,0.474582 -0.285361,1.022188 -0.304687,1.640625 l 0.93164,0.267578 c 0.09445,-0.16192 0.210852,-0.295388 0.359375,-0.410156 l 0.0059,-0.0039 0.0059,-0.0039 c 0.146275,-0.119679 0.314468,-0.21175 0.519531,-0.27539 l 0.0078,-0.002 0.0059,-0.002 c 0.205745,-0.07095 0.427334,-0.107421 0.673828,-0.107422 0.563883,0 1.04183,0.122396 1.466797,0.365235 l 0.0039,0.002 0.002,0.002 c 0.431679,0.238965 0.755821,0.552792 1,0.964844 l 0.0039,0.0039 0.002,0.0059 c 0.247032,0.396749 0.371094,0.834559 0.371094,1.355469 0,0.536459 -0.130401,0.996142 -0.396485,1.421875 l -0.002,0.0039 -0.002,0.002 c -0.262026,0.431572 -0.610717,0.767236 -1.072265,1.02539 h -0.002 -0.002 c -0.4426,0.251825 -0.941578,0.38086 -1.533203,0.38086 -0.637056,0 -1.154112,-0.149206 -1.597656,-0.441407 -4.02e-4,-2.7e-4 4.02e-4,-0.0017 0,-0.002 -0.436881,-0.294111 -0.780795,-0.710205 -1.037109,-1.294922 -0.253622,-0.578574 -0.390625,-1.296397 -0.390625,-2.162109 0,-1.118363 0.146392,-2.042366 0.416015,-2.769531 0.280106,-0.740112 0.654869,-1.254826 1.119141,-1.591797 l 0.0039,-0.002 0.002,-0.002 c 0.471222,-0.349617 1.007146,-0.521485 1.671875,-0.521485 z m 8.011719,0.59375 c -0.755437,0 -1.463214,0.211223 -2.074219,0.625 -0.597764,0.401945 -1.072793,0.961778 -1.412109,1.650391 v 0.002 l -0.002,0.002 c -0.333988,0.688218 -0.494141,1.46972 -0.494141,2.324219 0,0.854499 0.161445,1.638347 0.494141,2.333984 l 0.002,0.0039 0.002,0.0039 c 0.33976,0.67952 0.814034,1.235878 1.410156,1.636718 l 0.002,0.002 c 0.611183,0.404002 1.318379,0.609375 2.072266,0.609375 0.753887,0 1.456874,-0.20541 2.060547,-0.611329 0.604875,-0.400448 1.080874,-0.957205 1.412109,-1.638671 0.343251,-0.696597 0.509766,-1.483451 0.509766,-2.339844 0,-0.855024 -0.168254,-1.637806 -0.511719,-2.326172 -0.330285,-0.688415 -0.803546,-1.251406 -1.408203,-1.652344 -0.603015,-0.414778 -1.307918,-0.625 -2.0625,-0.625 z m -16.529297,0.34961 -0.142578,0.257812 c 0.02449,-0.04408 -0.05679,0.0691 -0.208984,0.197266 -0.137977,0.114796 -0.315647,0.241119 -0.533204,0.375 l -0.0039,0.002 -0.0039,0.0039 c -0.206516,0.132171 -0.416314,0.24563 -0.628906,0.34375 -0.178717,0.07728 -0.312177,0.103516 -0.371094,0.103516 h -0.5 v 2.6875 h 0.5 c 0.232403,0 0.470655,-0.0423 0.720703,-0.115235 0.240576,-0.07017 0.479929,-0.159013 0.716797,-0.267578 0.09142,-0.0419 0.164777,-0.09072 0.25,-0.134765 v 2.623046 h -1.917969 v 2.632813 h 6.482422 v -2.632813 h -0.5 -1.214844 v -6.076171 z m 25.039063,0 -1.300782,6.710937 h 1.449219 l -1.705078,1.769531 0.181641,0.324219 c 0.335314,0.59728 0.838798,1.075773 1.470703,1.412109 0.633783,0.337337 1.3469,0.503907 2.111328,0.503907 0.741666,0 1.427857,-0.150188 2.035156,-0.458985 0.605603,-0.307933 1.100583,-0.758813 1.453125,-1.328125 0.358613,-0.569678 0.535156,-1.234313 0.535156,-1.953125 0,-0.677626 -0.154141,-1.304227 -0.472656,-1.845703 -0.313515,-0.542406 -0.760783,-0.977414 -1.3125,-1.279297 -0.554831,-0.303587 -1.184236,-0.453125 -1.859375,-0.453125 -0.221732,0 -0.408182,0.05823 -0.603516,0.09961 l 0.15625,-0.855469 h 3.498047 v -2.646484 z m -16.548829,0.623046 c 0.312667,0 0.587841,0.07244 0.857422,0.228516 l 0.0039,0.0039 0.0039,0.002 c 0.272197,0.150425 0.486218,0.349033 0.660156,0.617188 l 0.173828,0.267578 c -0.523377,-0.249326 -1.080985,-0.431641 -1.699219,-0.431641 -0.345413,0 -0.679549,0.05243 -0.99414,0.160157 -0.108211,0.03404 -0.19159,0.109657 -0.292969,0.15625 0.0051,-0.01339 0.0045,-0.03769 0.0098,-0.05078 h 0.002 v -0.002 c 0.134968,-0.344919 0.308495,-0.570595 0.517578,-0.722656 0.209569,-0.152414 0.441702,-0.228515 0.757812,-0.228516 z m 8.039063,0.02734 c 0.575909,0 1.05786,0.147595 1.498047,0.451172 l 0.0039,0.002 0.0039,0.0039 c 0.453615,0.299848 0.803628,0.706414 1.066407,1.25586 l 0.002,0.0039 0.002,0.0039 c 0.267416,0.534834 0.40625,1.155208 0.40625,1.882813 0,0.727605 -0.137501,1.353035 -0.40625,1.898437 h -0.002 v 0.002 c -0.262292,0.54048 -0.613105,0.945163 -1.06836,1.246094 l -0.002,0.002 h -0.002 c -0.440326,0.296082 -0.923841,0.441407 -1.501953,0.441407 -0.576542,0 -1.065815,-0.145043 -1.515625,-0.441407 -4.02e-4,-2.7e-4 4.02e-4,-0.0017 0,-0.002 -0.445812,-0.300074 -0.798685,-0.706782 -1.070313,-1.248047 -0.260293,-0.545606 -0.396484,-1.170373 -0.396484,-1.898437 0,-0.727903 0.133681,-1.349779 0.392578,-1.884766 l 0.002,-0.002 c 2.58e-4,-5.31e-4 -2.57e-4,-0.0014 0,-0.002 0.272399,-0.551245 0.627171,-0.962431 1.072266,-1.261719 0.450634,-0.305514 0.939716,-0.453125 1.515625,-0.453125 z m -16.033203,0.34961 h 0.287109 l -0.888672,1.185546 c -0.03116,0.04154 -0.117707,0.125361 -0.255859,0.220704 -0.0023,0.0016 -0.0016,0.0023 -0.0039,0.0039 -0.145843,0.09112 -0.315154,0.179276 -0.507813,0.267578 -0.175431,0.08041 -0.347123,0.144081 -0.519531,0.197266 v -0.714844 c 0.09331,-0.0295 0.185717,-0.02632 0.28125,-0.06836 l 0.0059,-0.002 0.0039,-0.002 c 0.252793,-0.116674 0.499118,-0.252394 0.740234,-0.40625 l 0.0078,-0.0039 c 0.24613,-0.15186 0.460755,-0.301931 0.644532,-0.455078 v -0.002 h 0.002 c 0.08782,-0.07396 0.135436,-0.15335 0.203125,-0.220703 z m 0.298828,0 h 0.849609 v 6.076171 h 1.714844 V 33.65625 H 31.457031 V 33.023437 H 33.375 Z m 25.068359,0 h 3.8125 v 0.646484 h -3.332031 l -0.734375,4.029297 1.099609,-1.013672 c 0.0497,-0.04588 0.149206,-0.109897 0.310547,-0.166016 l 0.0078,-0.0039 0.0098,-0.002 c 0.129142,-0.05053 0.326009,-0.08789 0.587891,-0.08789 0.53086,0 0.979739,0.111666 1.378906,0.330078 0.401451,0.219662 0.70132,0.511845 0.927735,0.904297 l 0.002,0.002 v 0.002 c 0.221484,0.376523 0.335937,0.811471 0.335937,1.339843 0,0.559188 -0.127472,1.019355 -0.380859,1.421875 l -0.002,0.002 h -0.002 c -0.259362,0.419557 -0.601093,0.73321 -1.056641,0.964844 -0.4547,0.231204 -0.973698,0.351563 -1.582031,0.351563 -0.621571,0 -1.15841,-0.130056 -1.640625,-0.386719 C 57.818287,35.085773 57.59682,34.798636 57.375,34.507812 l 0.380859,-0.398437 c 0.214843,0.208816 0.403832,0.447964 0.669922,0.59375 0.443983,0.243133 0.923878,0.371094 1.414063,0.371094 0.391292,0 0.763671,-0.08489 1.08789,-0.263672 0.326115,-0.175279 0.599107,-0.432746 0.78711,-0.75 C 61.90715,33.736031 62,33.35994 62,32.96875 c 0,-0.386428 -0.086,-0.7561 -0.269531,-1.074219 -0.176665,-0.306219 -0.433084,-0.556377 -0.742188,-0.724609 -0.312057,-0.178683 -0.670383,-0.267578 -1.041015,-0.267578 -0.370667,0 -0.732272,0.08718 -1.060547,0.255859 -0.225138,0.112569 -0.38111,0.314081 -0.548828,0.5 h -0.808594 z m -9.333984,0.310546 c -0.436603,0 -0.859841,0.148263 -1.195313,0.423829 -0.328507,0.269845 -0.573788,0.636837 -0.742187,1.068359 l -0.002,0.0039 v 0.002 c -0.160973,0.429263 -0.234375,0.913017 -0.234375,1.445313 0,0.532296 0.0734,1.014097 0.234375,1.443359 l 0.002,0.0059 0.002,0.0059 c 0.169079,0.422698 0.414474,0.783192 0.740234,1.050781 0.335472,0.275566 0.75871,0.423828 1.195313,0.423828 0.429849,0 0.84558,-0.15233 1.171875,-0.429687 0.323108,-0.267139 0.568175,-0.624539 0.736328,-1.044922 l 0.002,-0.002 v -0.002 c 0.170526,-0.436972 0.25,-0.923858 0.25,-1.451172 0,-0.533168 -0.07867,-1.018514 -0.25,-1.449219 -0.159172,-0.43122 -0.399949,-0.800419 -0.728515,-1.070312 -0.333216,-0.273713 -0.75116,-0.423828 -1.181641,-0.423829 z m -9.869141,0.603516 c -0.0011,8.7e-4 -8.29e-4,0.003 -0.002,0.0039 -0.0027,0.0022 -0.0071,0.0017 -0.0098,0.0039 z m 9.869141,0.396484 c 0.217518,0 0.376091,0.05503 0.546875,0.195313 0.173236,0.142301 0.31686,0.347333 0.427734,0.650391 l 0.002,0.0078 0.0039,0.0059 c 0.115185,0.287963 0.179687,0.647368 0.179687,1.083985 0,0.425938 -0.06456,0.78328 -0.18164,1.083984 -2.06e-4,5.27e-4 2.05e-4,0.0014 0,0.002 -0.118607,0.294679 -0.268051,0.500877 -0.445313,0.646485 l -0.0039,0.0039 -0.0039,0.002 c -0.159493,0.135865 -0.307873,0.191406 -0.525391,0.191406 -0.229396,0 -0.392019,-0.05883 -0.560547,-0.197265 -0.177262,-0.145608 -0.326705,-0.351806 -0.445312,-0.646485 -0.107554,-0.28967 -0.167969,-0.64942 -0.167969,-1.085937 0,-0.437284 0.06006,-0.797962 0.167969,-1.087891 l 0.002,-0.002 c 0.119403,-0.304771 0.268464,-0.514539 0.443359,-0.658203 0.168528,-0.138434 0.331151,-0.195313 0.560547,-0.195313 z m -8.1875,0.44336 c -0.40522,0 -0.796247,0.107217 -1.140625,0.3125 -0.34026,0.193929 -0.623527,0.470852 -0.826172,0.808594 l -0.002,0.002 v 0.002 c -0.198649,0.338871 -0.298828,0.728156 -0.298828,1.130859 0,0.407333 0.106344,0.802615 0.310547,1.154297 l 0.002,0.0039 0.002,0.0039 c 0.201091,0.335152 0.476288,0.615711 0.808594,0.826171 l 0.0059,0.0039 0.0039,0.002 c 0.341458,0.204874 0.728812,0.314453 1.123047,0.314453 0.407333,0 0.800824,-0.107057 1.146485,-0.314453 l 0.0059,-0.002 0.0059,-0.0039 c 0.332306,-0.21046 0.607503,-0.491019 0.808594,-0.826171 l 0.002,-0.0039 0.002,-0.0039 c 0.204203,-0.351682 0.310547,-0.746964 0.310547,-1.154297 0,-0.406686 -0.108134,-0.799275 -0.318359,-1.138672 -0.201704,-0.334344 -0.481362,-0.609831 -0.81836,-0.802734 -0.337715,-0.207219 -0.72907,-0.314453 -1.132812,-0.314453 z m 0,1 c 0.240666,0 0.432999,0.05486 0.615234,0.167969 l 0.0078,0.0059 0.0078,0.0039 c 0.197559,0.11195 0.346411,0.256388 0.466797,0.457031 l 0.002,0.0039 0.002,0.0039 c 0.113112,0.182235 0.167969,0.372615 0.167969,0.613281 0,0.239995 -0.05668,0.444649 -0.175781,0.650391 -0.121475,0.200888 -0.27493,0.358388 -0.478516,0.488281 -0.192596,0.114362 -0.38855,0.169922 -0.626953,0.169922 -0.215636,0 -0.405114,-0.05325 -0.601562,-0.169922 -0.20317,-0.129628 -0.357156,-0.286026 -0.478516,-0.486328 v -0.002 c -0.119105,-0.205742 -0.175781,-0.410396 -0.175781,-0.650391 0,-0.243673 0.05227,-0.439004 0.158203,-0.621094 l 0.002,-0.002 c 0.120108,-0.199317 0.266169,-0.343602 0.462891,-0.455078 l 0.0059,-0.002 0.0059,-0.0039 c 0.194339,-0.116603 0.392147,-0.171875 0.632813,-0.171875 z m 12.619141,2.011719 v 2.943359 h 0.5 1.984375 v -2.943359 z m 6.40625,0.189453 c 0.221242,0 0.392187,0.04552 0.546875,0.134765 l 0.0078,0.0039 0.0059,0.0039 c 0.155579,0.08377 0.265499,0.190275 0.357422,0.349609 C 60.951704,32.544412 61,32.725179 61,32.96875 c 0,0.238809 -0.05079,0.420548 -0.146484,0.582031 -0.09952,0.16794 -0.22166,0.286157 -0.398438,0.38086 l -0.0039,0.002 -0.0039,0.002 c -0.160533,0.08918 -0.352867,0.138672 -0.607422,0.138672 -0.319815,0 -0.621577,-0.07718 -0.933594,-0.248047 -0.314701,-0.17242 -0.569214,-0.398791 -0.779297,-0.691406 l -0.341797,-0.476563 h 0.994141 l 0.146484,-0.234375 c 0.107814,-0.171233 0.234998,-0.284491 0.408203,-0.371094 l 0.0039,-0.002 0.002,-0.002 c 0.192259,-0.09944 0.386179,-0.146484 0.607422,-0.146484 z m -5.40625,0.810547 h 0.484375 v 0.943359 h -0.484375 z"
           id="path1642" /></g></g><g
       style="fill:#ffffff;fill-opacity:1;stroke:none"
       id="g1628"
       transform="matrix(0.26458333,0,0,0.26458333,94.879688,51.544942)"><path
         d="m 14.3438,70.125 c -1.2751,0 -2.3907,-0.4781 -3.3469,-1.4344 C 10.0406,67.7344 9.5625,66.6188 9.5625,65.3438 V 15.9375 c 0,-1.275 0.4781,-2.3906 1.4344,-3.3469 0.9562,-0.9562 2.0718,-1.4344 3.3469,-1.4344 h 5.1796 V 6.375 h 5.1797 v 4.7812 H 51.7969 V 6.375 h 5.1797 v 4.7812 h 5.1796 c 1.2751,0 2.3907,0.4782 3.3469,1.4344 0.9563,0.9563 1.4344,2.0719 1.4344,3.3469 v 49.4063 c 0,1.275 -0.4781,2.3906 -1.4344,3.3468 -0.9562,0.9563 -2.0718,1.4344 -3.3469,1.4344 z m 0,-4.7812 H 62.1562 V 31.0781 H 14.3438 Z m 0,-39.0469 H 62.1562 V 15.9375 H 14.3438 Z"
         fill="#ffffff"
         id="path1613"
         style="fill:#ffffff;fill-opacity:1;stroke:none" /><g
         id="path1615"
         style="fill:#ffffff;fill-opacity:1;stroke:none"><path
           style="color:#000000;fill:#ffffff;fill-opacity:1;stroke:none;-inkscape-stroke:none"
           d="m 29.856,23.1511 c 0.078,0.054 0.216,0.12 0.414,0.198 0.198,0.072 0.432,0.108 0.702,0.108 0.234,0 0.426,-0.039 0.576,-0.117 0.15,-0.084 0.264,-0.207 0.342,-0.369 0.084,-0.162 0.138,-0.372 0.162,-0.63 0.03,-0.258 0.045,-0.567 0.045,-0.927 v -3.348 h 1.242 v 3.249 c 0,0.48 -0.027,0.918 -0.081,1.314 -0.054,0.396 -0.159,0.738 -0.315,1.026 -0.156,0.288 -0.393,0.51 -0.711,0.666 -0.312,0.156 -0.729,0.234 -1.251,0.234 -0.288,0 -0.546,-0.033 -0.774,-0.099 -0.228,-0.066 -0.438,-0.165 -0.63,-0.297 z m 6.3237,-5.085 h 1.26 l 2.349,6.39 h -1.278 l -0.594,-1.593 h -2.232 l -0.585,1.593 h -1.278 z m 1.512,3.924 -0.882,-2.637 -0.918,2.637 z m 4.0398,-1.638 v 4.104 h -1.242 v -6.39 h 0.99 l 3.303,4.212 v -4.203 h 1.242 v 6.381 h -1.035 z"
           id="path1648" /><path
           style="color:#000000;fill:#ffffff;fill-opacity:1;stroke:none;-inkscape-stroke:none"
           d="m 31.597656,17.566406 v 3.847656 c 0,0.346111 -0.01605,0.637644 -0.04297,0.869141 v 0.0059 0.0059 c -0.01991,0.214043 -0.06635,0.362331 -0.109375,0.445312 l -0.002,0.0078 -0.0039,0.0059 c -0.03675,0.07632 -0.07286,0.110798 -0.130859,0.144531 -0.05681,0.02834 -0.1616,0.05859 -0.335938,0.05859 -0.225555,0 -0.401848,-0.03107 -0.53125,-0.07813 -0.170851,-0.0686 -0.29324,-0.133451 -0.300781,-0.138672 L 29.5625,22.339844 29.375,23.017578 29,24.369141 l 0.292969,0.201171 c 0.23608,0.162305 0.497879,0.284903 0.77539,0.365235 0.282013,0.08163 0.585916,0.119141 0.91211,0.11914 0.571808,0 1.062847,-0.08123 1.474609,-0.287109 0.397034,-0.195381 0.72242,-0.495957 0.927734,-0.875 0.190203,-0.351143 0.310578,-0.751524 0.371094,-1.195312 0.05765,-0.422797 0.08594,-0.884063 0.08594,-1.382813 v -3.748047 z m 4.234375,0 -0.121094,0.326172 -2.607421,7.064453 h 2.345703 l 0.583984,-1.59375 h 1.537109 l 0.59375,1.59375 h 1.826172 0.515625 1.726563 v -3.169922 l 2.515625,3.169922 h 1.777344 v -7.382812 h -2.242188 v 3.255859 l -2.560547,-3.263672 h -1.732422 v 5.988281 l -2.201172,-5.988281 z m -3.234375,1 h 0.242188 v 2.748047 c 0,0.46125 -0.02778,0.878845 -0.07813,1.248047 -0.04748,0.348211 -0.136016,0.62866 -0.257813,0.853516 -0.10624,0.196136 -0.254392,0.340376 -0.492187,0.457031 h -0.002 -0.002 c -0.212236,0.106118 -0.555152,0.181641 -1.027343,0.18164 -0.249806,0 -0.460779,-0.02776 -0.634766,-0.07813 -0.06443,-0.01865 -0.115972,-0.05708 -0.175781,-0.08203 l 0.01563,-0.0625 c 0.24481,0.07763 0.503618,0.125 0.787109,0.125 0.289556,0 0.562221,-0.04673 0.806641,-0.173828 l 0.0059,-0.0039 0.0078,-0.0039 c 0.235689,-0.131986 0.425054,-0.341683 0.542968,-0.583985 0.120323,-0.235479 0.18457,-0.49966 0.212891,-0.792969 v -0.0059 c 0.03267,-0.283307 0.04883,-0.606847 0.04883,-0.978516 z m 3.929688,0 h 0.02539 L 35.1875,22.490234 h 0.101562 L 34.75,23.957031 h -0.210938 z m 0.546875,0 h 0.01563 l 1.982422,5.390625 h -0.214844 l -0.546875,-1.466797 h 0.07617 l -0.220703,-0.658203 z m 3.916015,0 h 0.246094 l 4.046875,5.160156 v -5.152343 h 0.242188 v 5.382812 h -0.294922 l -3.998047,-5.039062 v 1.433593 3.605469 h -0.242188 z m -4.189453,2.333985 0.195313,0.589843 H 36.59375 Z"
           id="path1650" /></g><g
         id="path1617"
         style="fill:#ffffff;fill-opacity:1;stroke:none"><path
           style="color:#000000;fill:#ffffff;fill-opacity:1;stroke:none;-inkscape-stroke:none"
           d="m 42.96,51.072 v 2.178 h -7.308 v -2.178 h 2.556 v -5.454 c -0.108,0.144 -0.276,0.294 -0.504,0.45 -0.228,0.144 -0.486,0.282 -0.774,0.414 -0.288,0.132 -0.576,0.24 -0.864,0.324 -0.288,0.084 -0.546,0.126 -0.774,0.126 v -2.25 c 0.216,0 0.474,-0.066 0.774,-0.198 0.312,-0.144 0.618,-0.312 0.918,-0.504 0.312,-0.192 0.576,-0.378 0.792,-0.558 0.228,-0.192 0.372,-0.342 0.432,-0.45 h 2.466 v 8.1 z"
           id="path1654" /><path
           style="color:#000000;fill:#ffffff;fill-opacity:1;stroke:none;-inkscape-stroke:none"
           d="m 37.914062,42.472656 -0.142578,0.25586 c 0.0095,-0.01708 -0.109162,0.13438 -0.318359,0.310546 -0.191949,0.159772 -0.434903,0.333739 -0.730469,0.515625 l -0.0039,0.002 -0.0039,0.002 c -0.279004,0.178562 -0.561693,0.333471 -0.84961,0.466797 -8.24e-4,3.62e-4 -0.0011,-3.62e-4 -0.002,0 -0.258302,0.113361 -0.456527,0.15625 -0.570312,0.15625 h -0.5 v 3.25 h 0.5 c 0.289403,0 0.590061,-0.05255 0.912109,-0.146485 0.312576,-0.09117 0.624726,-0.206092 0.933594,-0.347656 0.208334,-0.09549 0.385764,-0.201055 0.568359,-0.304688 v 3.939454 H 35.152344 V 53.75 h 8.308593 v -3.177734 h -0.5 -1.787109 v -8.09961 z m 0.492188,1 h 1.767578 v 8.09961 h 2.287109 V 52.75 h -6.308593 v -1.177734 h 2.554687 v -7.455079 l -0.898437,1.201172 c -0.05724,0.07632 -0.185964,0.197762 -0.376953,0.330078 -0.204737,0.12892 -0.442447,0.255848 -0.710938,0.378907 -0.267132,0.122435 -0.531498,0.221996 -0.794922,0.298828 -0.05326,0.01553 -0.08318,0.0096 -0.132812,0.02148 V 45.05859 c 0.157501,-0.04123 0.308783,-0.04422 0.474609,-0.117188 l 0.0039,-0.002 0.0039,-0.002 c 0.333406,-0.15388 0.660032,-0.33328 0.978515,-0.537109 0.323627,-0.199608 0.60426,-0.395803 0.841797,-0.59375 l 0.002,-0.002 c 0.139085,-0.117124 0.211597,-0.226775 0.308594,-0.332031 z"
           id="path1656" /></g></g></g></svg>
