<?xml version="1.0" encoding="UTF-8" standalone="no"?>
<!-- Created with Inkscape (http://www.inkscape.org/) -->

<svg
   width="92.76416mm"
   height="47.644375mm"
   viewBox="0 0 92.76416 47.644375"
   version="1.1"
   id="svg1112"
   xml:space="preserve"
   xmlns="http://www.w3.org/2000/svg"
   xmlns:svg="http://www.w3.org/2000/svg"><defs
     id="defs1109" /><g
     id="layer5"
     transform="translate(198.71727,-11.896362)"><g
       style="fill:none"
       id="g2557"
       transform="matrix(0.26458333,0,0,0.26458333,-131.29162,11.824538)"><path
         d="m 82.2748,3.03192 c 0,0 2.2,0 4.43,0 5.9994,0 6.3285,1.13557 6.3285,6.38756 V 81.5701 c 0,5.581 -0.1475,8.5676 -10.2314,8.5676 H 12.6084 c -9.5784,0 -9.59128,-0.0988 -9.59128,-8.6871 V 10.0057 c 0,0 -0.5078,-7.0057 4.00737,-7.0057 4.51521,0 5.90521,0 5.90521,0"
         stroke="#ffffff"
         stroke-width="5.45698"
         stroke-linecap="round"
         id="path2542" /><path
         d="M 67.1236,17.0364 H 26.9115 c -2.5142,0 -4.5523,2.0571 -4.5523,4.5947 v 14.5501 c 0,2.5376 2.0381,4.5947 4.5523,4.5947 h 40.2121 c 2.5142,0 4.5523,-2.0571 4.5523,-4.5947 V 21.6311 c 0,-2.5376 -2.0381,-4.5947 -4.5523,-4.5947 z"
         stroke="#ffffff"
         stroke-width="7.36007"
         stroke-linecap="round"
         id="path2544" /><path
         d="m 36.4388,32.5227 v 1.6335 h -5.481 v -1.6335 h 1.917 v -4.0905 c -0.081,0.108 -0.207,0.2205 -0.378,0.3375 -0.171,0.108 -0.3645,0.2115 -0.5805,0.3105 -0.216,0.099 -0.432,0.18 -0.648,0.243 -0.216,0.063 -0.4095,0.0945 -0.5805,0.0945 v -1.6875 c 0.162,0 0.3555,-0.0495 0.5805,-0.1485 0.234,-0.108 0.4635,-0.234 0.6885,-0.378 0.234,-0.144 0.432,-0.2835 0.594,-0.4185 0.171,-0.144 0.279,-0.2565 0.324,-0.3375 h 1.8495 v 6.075 z m 3.8628,3.6451 c -0.693,0 -1.3185,-0.1485 -1.8765,-0.4455 -0.558,-0.297 -0.981,-0.702 -1.269,-1.215 l 1.0395,-1.0801 c 0.252,0.351 0.567,0.63 0.945,0.8371 0.378,0.207 0.7695,0.3105 1.1745,0.3105 0.324,0 0.6075,-0.0675 0.8505,-0.2025 0.252,-0.135 0.45,-0.3241 0.594,-0.5671 0.144,-0.243 0.216,-0.522 0.216,-0.837 0,-0.315 -0.0675,-0.5895 -0.2025,-0.8235 -0.135,-0.234 -0.3195,-0.414 -0.5535,-0.54 -0.234,-0.135 -0.4995,-0.2025 -0.7965,-0.2025 -0.297,0 -0.576,0.0675 -0.837,0.2025 -0.252,0.126 -0.4545,0.3105 -0.6075,0.5535 h -1.5795 l 1.107,-5.7105 h 4.725 v 1.647 h -3.4155 l -0.3915,2.1465 c 0.117,-0.108 0.279,-0.198 0.486,-0.27 0.207,-0.081 0.4635,-0.1215 0.7695,-0.1215 0.603,0 1.143,0.1305 1.62,0.3915 0.477,0.261 0.8505,0.6255 1.1205,1.0935 0.27,0.459 0.405,0.99 0.405,1.593 0,0.639 -0.153,1.2015 -0.459,1.6876 -0.306,0.495 -0.7245,0.8775 -1.2555,1.1475 -0.531,0.27 -1.134,0.405 -1.809,0.405 z m 4.3701,-6.3856 c 0,0.603 0.144,1.1475 0.432,1.6335 0.297,0.477 0.6975,0.8595 1.2015,1.1475 0.513,0.279 1.08,0.4185 1.701,0.4185 0.306,0 0.585,-0.0405 0.837,-0.1215 0.261,-0.09 0.4905,-0.216 0.6885,-0.378 0.207,-0.162 0.369,-0.3465 0.486,-0.5535 -0.009,0.576 -0.099,1.071 -0.27,1.485 -0.162,0.405 -0.3915,0.7155 -0.6885,0.9316 -0.288,0.216 -0.6345,0.324 -1.0395,0.324 -0.396,0 -0.7695,-0.099 -1.1205,-0.297 -0.342,-0.189 -0.621,-0.4501 -0.837,-0.7831 l -1.0395,1.1341 c 0.351,0.486 0.783,0.8595 1.296,1.1205 0.513,0.261 1.071,0.3915 1.674,0.3915 0.756,0 1.413,-0.207 1.971,-0.621 0.558,-0.414 0.9855,-1.0215 1.2825,-1.8226 0.306,-0.801 0.459,-1.782 0.459,-2.943 0,-0.927 -0.144,-1.7145 -0.432,-2.3625 -0.288,-0.657 -0.6975,-1.161 -1.2285,-1.512 -0.522,-0.351 -1.1475,-0.5265 -1.8765,-0.5265 -0.657,0 -1.251,0.1485 -1.782,0.4455 -0.531,0.297 -0.9495,0.6975 -1.2555,1.2015 -0.306,0.504 -0.459,1.0665 -0.459,1.6875 z m 3.4965,-1.809 c 0.315,0 0.6075,0.0855 0.8775,0.2565 0.27,0.162 0.486,0.3825 0.648,0.6615 0.162,0.27 0.243,0.567 0.243,0.891 0,0.324 -0.081,0.621 -0.243,0.891 -0.162,0.261 -0.378,0.4725 -0.648,0.6345 -0.261,0.153 -0.5535,0.2295 -0.8775,0.2295 -0.324,0 -0.621,-0.0765 -0.891,-0.2295 -0.27,-0.162 -0.486,-0.3735 -0.648,-0.6345 -0.153,-0.27 -0.2295,-0.567 -0.2295,-0.891 0,-0.333 0.081,-0.6345 0.243,-0.9045 0.162,-0.27 0.378,-0.486 0.648,-0.648 0.27,-0.171 0.5625,-0.2565 0.8775,-0.2565 z m 4.8043,6.183 v -1.944 h 1.485 v 1.944 z m 9.8092,-2.835 c 0,0.594 -0.162,1.1115 -0.486,1.5525 -0.315,0.441 -0.738,0.7875 -1.269,1.0395 -0.531,0.243 -1.1115,0.3646 -1.7415,0.3646 -0.639,0 -1.224,-0.1306 -1.755,-0.3916 -0.522,-0.261 -0.9405,-0.6165 -1.2555,-1.0665 -0.306,-0.459 -0.459,-0.981 -0.459,-1.566 0,-0.36 0.0765,-0.684 0.2295,-0.972 0.153,-0.297 0.342,-0.549 0.567,-0.756 0.234,-0.216 0.468,-0.3825 0.702,-0.4995 -0.216,-0.108 -0.4185,-0.252 -0.6075,-0.432 -0.18,-0.18 -0.324,-0.387 -0.432,-0.621 -0.108,-0.234 -0.162,-0.4815 -0.162,-0.7425 0,-0.423 0.0945,-0.801 0.2835,-1.134 0.189,-0.333 0.441,-0.612 0.756,-0.837 0.315,-0.234 0.657,-0.405 1.026,-0.513 0.378,-0.117 0.7515,-0.1755 1.1205,-0.1755 0.36,0 0.729,0.0585 1.107,0.1755 0.378,0.108 0.7245,0.2745 1.0395,0.4995 0.315,0.225 0.567,0.504 0.756,0.837 0.198,0.324 0.297,0.702 0.297,1.134 0,0.252 -0.0585,0.4995 -0.1755,0.7425 -0.108,0.234 -0.2565,0.4455 -0.4455,0.6345 -0.18,0.18 -0.387,0.324 -0.621,0.432 0.261,0.135 0.5085,0.3105 0.7425,0.5265 0.234,0.216 0.423,0.4725 0.567,0.7695 0.144,0.297 0.216,0.63 0.216,0.999 z m -1.836,-0.108 c 0,-0.234 -0.045,-0.4365 -0.135,-0.6075 -0.09,-0.18 -0.216,-0.3285 -0.378,-0.4455 -0.162,-0.126 -0.342,-0.2205 -0.54,-0.2835 -0.198,-0.063 -0.4005,-0.0945 -0.6075,-0.0945 -0.288,0 -0.558,0.0585 -0.81,0.1755 -0.243,0.117 -0.441,0.2835 -0.594,0.4995 -0.153,0.216 -0.2295,0.468 -0.2295,0.756 0,0.216 0.045,0.414 0.135,0.594 0.099,0.171 0.225,0.3195 0.378,0.4455 0.162,0.126 0.3375,0.225 0.5265,0.297 0.198,0.063 0.4005,0.0945 0.6075,0.0945 0.288,0 0.558,-0.063 0.81,-0.189 0.252,-0.126 0.4545,-0.297 0.6075,-0.513 0.153,-0.216 0.2295,-0.459 0.2295,-0.729 z m -2.997,-3.9285 c 0,0.243 0.0675,0.45 0.2025,0.621 0.135,0.171 0.306,0.3015 0.513,0.3915 0.216,0.081 0.4275,0.1215 0.6345,0.1215 0.216,0 0.423,-0.045 0.621,-0.135 0.207,-0.09 0.378,-0.216 0.513,-0.378 0.144,-0.171 0.216,-0.3825 0.216,-0.6345 0,-0.225 -0.063,-0.4185 -0.189,-0.5805 -0.126,-0.162 -0.2925,-0.288 -0.4995,-0.378 -0.198,-0.09 -0.423,-0.135 -0.675,-0.135 -0.234,0 -0.4545,0.045 -0.6615,0.135 -0.207,0.09 -0.3735,0.2205 -0.4995,0.3915 -0.117,0.162 -0.1755,0.3555 -0.1755,0.5805 z"
         fill="#ffffff"
         id="path2546" /></g><g
       style="fill:none"
       id="g2574"
       transform="matrix(0.26458333,0,0,0.26458333,-128.70741,40.986828)"><path
         d="m 14.3438,70.125 c -1.2751,0 -2.3907,-0.4781 -3.3469,-1.4344 C 10.0406,67.7344 9.5625,66.6188 9.5625,65.3438 V 15.9375 c 0,-1.275 0.4781,-2.3906 1.4344,-3.3469 0.9562,-0.9562 2.0718,-1.4344 3.3469,-1.4344 h 5.1796 V 6.375 h 5.1797 v 4.7812 H 51.7969 V 6.375 h 5.1797 v 4.7812 h 5.1796 c 1.2751,0 2.3907,0.4782 3.3469,1.4344 0.9563,0.9563 1.4344,2.0719 1.4344,3.3469 v 49.4063 c 0,1.275 -0.4781,2.3906 -1.4344,3.3468 -0.9562,0.9563 -2.0718,1.4344 -3.3469,1.4344 z m 0,-4.7812 H 62.1562 V 31.0781 H 14.3438 Z m 0,-39.0469 H 62.1562 V 15.9375 H 14.3438 Z"
         fill="#ffffff"
         id="path2559" /><path
         d="m 29.856,23.1511 c 0.078,0.054 0.216,0.12 0.414,0.198 0.198,0.072 0.432,0.108 0.702,0.108 0.234,0 0.426,-0.039 0.576,-0.117 0.15,-0.084 0.264,-0.207 0.342,-0.369 0.084,-0.162 0.138,-0.372 0.162,-0.63 0.03,-0.258 0.045,-0.567 0.045,-0.927 v -3.348 h 1.242 v 3.249 c 0,0.48 -0.027,0.918 -0.081,1.314 -0.054,0.396 -0.159,0.738 -0.315,1.026 -0.156,0.288 -0.393,0.51 -0.711,0.666 -0.312,0.156 -0.729,0.234 -1.251,0.234 -0.288,0 -0.546,-0.033 -0.774,-0.099 -0.228,-0.066 -0.438,-0.165 -0.63,-0.297 z m 6.3237,-5.085 h 1.26 l 2.349,6.39 h -1.278 l -0.594,-1.593 h -2.232 l -0.585,1.593 h -1.278 z m 1.512,3.924 -0.882,-2.637 -0.918,2.637 z m 4.0398,-1.638 v 4.104 h -1.242 v -6.39 h 0.99 l 3.303,4.212 v -4.203 h 1.242 v 6.381 h -1.035 z"
         fill="#ffffff"
         id="path2561" /><path
         d="m 41.358,49.002 c 0.504,0.084 0.942,0.276 1.314,0.576 0.372,0.288 0.66,0.66 0.864,1.116 0.216,0.456 0.324,0.96 0.324,1.512 0,0.744 -0.192,1.392 -0.576,1.944 -0.384,0.552 -0.93,0.978 -1.638,1.278 -0.696,0.312 -1.518,0.468 -2.466,0.468 -0.912,0 -1.722,-0.15 -2.43,-0.45 -0.696,-0.288 -1.278,-0.714 -1.746,-1.278 l 1.368,-1.71 c 0.312,0.384 0.684,0.684 1.116,0.9 0.444,0.228 0.984,0.342 1.62,0.342 0.732,0 1.29,-0.15 1.674,-0.45 0.384,-0.288 0.576,-0.726 0.576,-1.314 0,-0.624 -0.222,-1.104 -0.666,-1.44 -0.444,-0.336 -1.116,-0.504 -2.016,-0.504 h -0.504 v -1.8 h 0.558 c 0.732,0 1.302,-0.168 1.71,-0.504 0.42,-0.336 0.63,-0.756 0.63,-1.26 0,-0.324 -0.078,-0.594 -0.234,-0.81 -0.156,-0.216 -0.372,-0.378 -0.648,-0.486 -0.264,-0.108 -0.576,-0.162 -0.936,-0.162 -0.54,0 -1.032,0.126 -1.476,0.378 -0.444,0.252 -0.804,0.606 -1.08,1.062 l -1.512,-1.692 c 0.252,-0.372 0.594,-0.69 1.026,-0.954 0.444,-0.276 0.948,-0.492 1.512,-0.648 0.576,-0.156 1.176,-0.234 1.8,-0.234 0.816,0 1.53,0.132 2.142,0.396 0.624,0.264 1.11,0.636 1.458,1.116 0.348,0.48 0.522,1.038 0.522,1.674 0,0.468 -0.096,0.912 -0.288,1.332 -0.192,0.42 -0.462,0.774 -0.81,1.062 -0.336,0.276 -0.732,0.456 -1.188,0.54 z"
         fill="#ffffff"
         id="path2563" /></g><g
       style="fill:none"
       id="g2591"
       transform="matrix(0.26458333,0,0,0.26458333,-165.03972,11.824525)"><path
         d="m 82.2748,3.03192 c 0,0 2.2,0 4.43,0 5.9994,0 6.3285,1.13557 6.3285,6.38756 V 81.5701 c 0,5.581 -0.1475,8.5677 -10.2314,8.5677 H 12.6084 c -9.5784,0 -9.59128,-0.0989 -9.59128,-8.6871 v -71.445 c 0,0 -0.5078,-7.0057 4.00737,-7.0057 4.51521,0 5.90521,0 5.90521,0"
         stroke="#ffffff"
         stroke-width="5.45698"
         stroke-linecap="round"
         id="path2576" /><path
         d="M 67.1236,17.0364 H 26.9115 c -2.5142,0 -4.5523,2.0571 -4.5523,4.5947 v 14.5501 c 0,2.5376 2.0381,4.5947 4.5523,4.5947 h 40.2121 c 2.5142,0 4.5523,-2.0571 4.5523,-4.5947 V 21.6311 c 0,-2.5376 -2.0381,-4.5947 -4.5523,-4.5947 z"
         stroke="#ffffff"
         stroke-width="7.36007"
         stroke-linecap="round"
         id="path2578" /><path
         d="m 36.4388,32.5227 v 1.6335 h -5.481 v -1.6335 h 1.917 v -4.0905 c -0.081,0.108 -0.207,0.2205 -0.378,0.3375 -0.171,0.108 -0.3645,0.2115 -0.5805,0.3105 -0.216,0.099 -0.432,0.18 -0.648,0.243 -0.216,0.063 -0.4095,0.0945 -0.5805,0.0945 v -1.6875 c 0.162,0 0.3555,-0.0495 0.5805,-0.1485 0.234,-0.108 0.4635,-0.234 0.6885,-0.378 0.234,-0.144 0.432,-0.2835 0.594,-0.4185 0.171,-0.144 0.279,-0.2565 0.324,-0.3375 h 1.8495 v 6.075 z m 7.9804,-1.566 c 0,-0.603 -0.1485,-1.143 -0.4455,-1.62 -0.288,-0.486 -0.684,-0.8685 -1.188,-1.1475 -0.504,-0.288 -1.0755,-0.432 -1.7145,-0.432 -0.297,0 -0.576,0.045 -0.837,0.135 -0.261,0.081 -0.4905,0.2025 -0.6885,0.3645 -0.198,0.153 -0.36,0.3375 -0.486,0.5535 0.018,-0.576 0.108,-1.0665 0.27,-1.4715 0.162,-0.414 0.3915,-0.729 0.6885,-0.945 0.297,-0.216 0.648,-0.324 1.053,-0.324 0.396,0 0.765,0.099 1.107,0.297 0.342,0.189 0.621,0.45 0.837,0.783 l 1.0395,-1.134 c -0.351,-0.486 -0.783,-0.8595 -1.296,-1.1205 -0.504,-0.261 -1.0575,-0.3915 -1.6605,-0.3915 -0.756,0 -1.413,0.207 -1.971,0.621 -0.558,0.405 -0.99,1.0125 -1.296,1.8225 -0.297,0.801 -0.4455,1.782 -0.4455,2.943 0,0.918 0.144,1.7055 0.432,2.3625 0.288,0.657 0.693,1.161 1.215,1.512 0.531,0.351 1.1565,0.5266 1.8765,0.5266 0.666,0 1.26,-0.1486 1.782,-0.4456 0.531,-0.297 0.9495,-0.6975 1.2555,-1.2015 0.315,-0.504 0.4725,-1.0665 0.4725,-1.6875 z m -3.51,1.809 c -0.306,0 -0.594,-0.081 -0.864,-0.243 -0.27,-0.171 -0.486,-0.3915 -0.648,-0.6615 -0.162,-0.279 -0.243,-0.5805 -0.243,-0.9045 0,-0.324 0.0765,-0.6165 0.2295,-0.8775 0.162,-0.27 0.378,-0.4815 0.648,-0.6345 0.27,-0.162 0.567,-0.243 0.891,-0.243 0.324,0 0.6165,0.081 0.8775,0.243 0.27,0.153 0.486,0.3645 0.648,0.6345 0.162,0.261 0.243,0.5535 0.243,0.8775 0,0.324 -0.081,0.6255 -0.243,0.9045 -0.162,0.27 -0.378,0.4905 -0.648,0.6615 -0.27,0.162 -0.567,0.243 -0.891,0.243 z m 11.6831,-2.565 c 0,0.792 -0.153,1.4985 -0.459,2.1195 -0.297,0.612 -0.711,1.0935 -1.242,1.4445 -0.522,0.351 -1.116,0.5266 -1.782,0.5266 -0.666,0 -1.2645,-0.1756 -1.7955,-0.5266 -0.522,-0.351 -0.936,-0.8325 -1.242,-1.4445 -0.297,-0.621 -0.4455,-1.3275 -0.4455,-2.1195 0,-0.792 0.1485,-1.494 0.4455,-2.106 0.306,-0.621 0.72,-1.107 1.242,-1.458 0.531,-0.36 1.1295,-0.54 1.7955,-0.54 0.666,0 1.26,0.18 1.782,0.54 0.531,0.351 0.945,0.837 1.242,1.458 0.306,0.612 0.459,1.314 0.459,2.106 z m -1.8225,0 c 0,-0.486 -0.072,-0.909 -0.216,-1.269 -0.135,-0.369 -0.3285,-0.657 -0.5805,-0.864 -0.252,-0.207 -0.54,-0.3105 -0.864,-0.3105 -0.333,0 -0.6255,0.1035 -0.8775,0.3105 -0.252,0.207 -0.45,0.495 -0.594,0.864 -0.135,0.36 -0.2025,0.783 -0.2025,1.269 0,0.486 0.0675,0.909 0.2025,1.269 0.144,0.36 0.342,0.6435 0.594,0.8505 0.252,0.207 0.5445,0.3105 0.8775,0.3105 0.324,0 0.6075,-0.1035 0.8505,-0.3105 0.252,-0.207 0.45,-0.4905 0.594,-0.8505 0.144,-0.369 0.216,-0.792 0.216,-1.269 z m 3.2705,3.9555 v -1.944 h 1.485 v 1.944 z m 8.5943,-1.6335 v 1.6335 h -5.481 v -1.6335 h 1.917 v -4.0905 c -0.081,0.108 -0.207,0.2205 -0.378,0.3375 -0.171,0.108 -0.3645,0.2115 -0.5805,0.3105 -0.216,0.099 -0.432,0.18 -0.648,0.243 -0.216,0.063 -0.4095,0.0945 -0.5805,0.0945 v -1.6875 c 0.162,0 0.3555,-0.0495 0.5805,-0.1485 0.234,-0.108 0.4635,-0.234 0.6885,-0.378 0.234,-0.144 0.432,-0.2835 0.594,-0.4185 0.171,-0.144 0.279,-0.2565 0.324,-0.3375 h 1.8495 v 6.075 z"
         fill="#ffffff"
         id="path2580" /></g><g
       style="fill:none"
       id="g2608"
       transform="matrix(0.26458333,0,0,0.26458333,-162.45551,40.986828)"><path
         d="m 14.3438,70.125 c -1.2751,0 -2.3907,-0.4781 -3.3469,-1.4344 C 10.0406,67.7344 9.5625,66.6188 9.5625,65.3438 V 15.9375 c 0,-1.275 0.4781,-2.3906 1.4344,-3.3469 0.9562,-0.9562 2.0718,-1.4344 3.3469,-1.4344 h 5.1796 V 6.375 h 5.1797 v 4.7812 H 51.7969 V 6.375 h 5.1797 v 4.7812 h 5.1796 c 1.2751,0 2.3907,0.4782 3.3469,1.4344 0.9563,0.9563 1.4344,2.0719 1.4344,3.3469 v 49.4063 c 0,1.275 -0.4781,2.3906 -1.4344,3.3468 -0.9562,0.9563 -2.0718,1.4344 -3.3469,1.4344 z m 0,-4.7812 H 62.1562 V 31.0781 H 14.3438 Z m 0,-39.0469 H 62.1562 V 15.9375 H 14.3438 Z"
         fill="#ffffff"
         id="path2593" /><path
         d="m 29.856,23.1511 c 0.078,0.054 0.216,0.12 0.414,0.198 0.198,0.072 0.432,0.108 0.702,0.108 0.234,0 0.426,-0.039 0.576,-0.117 0.15,-0.084 0.264,-0.207 0.342,-0.369 0.084,-0.162 0.138,-0.372 0.162,-0.63 0.03,-0.258 0.045,-0.567 0.045,-0.927 v -3.348 h 1.242 v 3.249 c 0,0.48 -0.027,0.918 -0.081,1.314 -0.054,0.396 -0.159,0.738 -0.315,1.026 -0.156,0.288 -0.393,0.51 -0.711,0.666 -0.312,0.156 -0.729,0.234 -1.251,0.234 -0.288,0 -0.546,-0.033 -0.774,-0.099 -0.228,-0.066 -0.438,-0.165 -0.63,-0.297 z m 6.3237,-5.085 h 1.26 l 2.349,6.39 h -1.278 l -0.594,-1.593 h -2.232 l -0.585,1.593 h -1.278 z m 1.512,3.924 -0.882,-2.637 -0.918,2.637 z m 4.0398,-1.638 v 4.104 h -1.242 v -6.39 h 0.99 l 3.303,4.212 v -4.203 h 1.242 v 6.381 h -1.035 z"
         fill="#ffffff"
         id="path2595" /><path
         d="m 35.184,53.25 c 0,-0.54 0.042,-1.026 0.126,-1.458 0.084,-0.432 0.228,-0.834 0.432,-1.206 0.216,-0.372 0.504,-0.72 0.864,-1.044 0.372,-0.336 0.84,-0.66 1.404,-0.972 0.492,-0.264 0.924,-0.492 1.296,-0.684 0.372,-0.204 0.684,-0.39 0.936,-0.558 0.264,-0.168 0.462,-0.336 0.594,-0.504 0.132,-0.18 0.198,-0.384 0.198,-0.612 0,-0.24 -0.066,-0.456 -0.198,-0.648 -0.132,-0.204 -0.318,-0.366 -0.558,-0.486 -0.24,-0.12 -0.54,-0.18 -0.9,-0.18 -0.288,0 -0.558,0.036 -0.81,0.108 -0.24,0.072 -0.468,0.174 -0.684,0.306 -0.204,0.132 -0.396,0.282 -0.576,0.45 -0.18,0.156 -0.342,0.324 -0.486,0.504 l -1.53,-1.764 c 0.168,-0.168 0.39,-0.348 0.666,-0.54 0.288,-0.204 0.624,-0.39 1.008,-0.558 0.396,-0.18 0.828,-0.324 1.296,-0.432 0.48,-0.12 0.99,-0.18 1.53,-0.18 0.816,0 1.512,0.132 2.088,0.396 0.576,0.252 1.014,0.606 1.314,1.062 0.312,0.456 0.468,0.99 0.468,1.602 0,0.42 -0.078,0.792 -0.234,1.116 -0.156,0.324 -0.354,0.612 -0.594,0.864 -0.24,0.24 -0.504,0.456 -0.792,0.648 -0.276,0.192 -0.546,0.36 -0.81,0.504 -0.372,0.192 -0.708,0.372 -1.008,0.54 -0.3,0.156 -0.564,0.318 -0.792,0.486 -0.228,0.156 -0.432,0.318 -0.612,0.486 -0.168,0.168 -0.318,0.36 -0.45,0.576 h 5.49 v 2.178 z"
         fill="#ffffff"
         id="path2597" /></g><g
       style="fill:none"
       id="g2625"
       transform="matrix(0.26458333,0,0,0.26458333,-198.78783,11.824525)"><path
         d="m 82.2748,3.03192 c 0,0 2.2,0 4.43,0 5.9994,0 6.3285,1.13557 6.3285,6.38756 V 81.5701 c 0,5.581 -0.1475,8.5677 -10.2314,8.5677 H 12.6084 c -9.5784,0 -9.59128,-0.0989 -9.59128,-8.6871 v -71.445 c 0,0 -0.5078,-7.0057 4.00737,-7.0057 4.51521,0 5.90521,0 5.90521,0"
         stroke="#ffffff"
         stroke-width="5.45698"
         stroke-linecap="round"
         id="path2610" /><path
         d="M 67.1236,17.0364 H 26.9115 c -2.5142,0 -4.5523,2.0571 -4.5523,4.5947 v 14.5501 c 0,2.5376 2.0381,4.5947 4.5523,4.5947 h 40.2121 c 2.5142,0 4.5523,-2.0571 4.5523,-4.5947 V 21.6311 c 0,-2.5376 -2.0381,-4.5947 -4.5523,-4.5947 z"
         stroke="#ffffff"
         stroke-width="7.36007"
         stroke-linecap="round"
         id="path2612" /><path
         d="m 36.4388,32.5227 v 1.6335 h -5.481 v -1.6335 h 1.917 v -4.0905 c -0.081,0.108 -0.207,0.2205 -0.378,0.3375 -0.171,0.108 -0.3645,0.2115 -0.5805,0.3105 -0.216,0.099 -0.432,0.18 -0.648,0.243 -0.216,0.063 -0.4095,0.0945 -0.5805,0.0945 v -1.6875 c 0.162,0 0.3555,-0.0495 0.5805,-0.1485 0.234,-0.108 0.4635,-0.234 0.6885,-0.378 0.234,-0.144 0.432,-0.2835 0.594,-0.4185 0.171,-0.144 0.279,-0.2565 0.324,-0.3375 h 1.8495 v 6.075 z m 7.9804,-1.566 c 0,-0.603 -0.1485,-1.143 -0.4455,-1.62 -0.288,-0.486 -0.684,-0.8685 -1.188,-1.1475 -0.504,-0.288 -1.0755,-0.432 -1.7145,-0.432 -0.297,0 -0.576,0.045 -0.837,0.135 -0.261,0.081 -0.4905,0.2025 -0.6885,0.3645 -0.198,0.153 -0.36,0.3375 -0.486,0.5535 0.018,-0.576 0.108,-1.0665 0.27,-1.4715 0.162,-0.414 0.3915,-0.729 0.6885,-0.945 0.297,-0.216 0.648,-0.324 1.053,-0.324 0.396,0 0.765,0.099 1.107,0.297 0.342,0.189 0.621,0.45 0.837,0.783 l 1.0395,-1.134 c -0.351,-0.486 -0.783,-0.8595 -1.296,-1.1205 -0.504,-0.261 -1.0575,-0.3915 -1.6605,-0.3915 -0.756,0 -1.413,0.207 -1.971,0.621 -0.558,0.405 -0.99,1.0125 -1.296,1.8225 -0.297,0.801 -0.4455,1.782 -0.4455,2.943 0,0.918 0.144,1.7055 0.432,2.3625 0.288,0.657 0.693,1.161 1.215,1.512 0.531,0.351 1.1565,0.5266 1.8765,0.5266 0.666,0 1.26,-0.1486 1.782,-0.4456 0.531,-0.297 0.9495,-0.6975 1.2555,-1.2015 0.315,-0.504 0.4725,-1.0665 0.4725,-1.6875 z m -3.51,1.809 c -0.306,0 -0.594,-0.081 -0.864,-0.243 -0.27,-0.171 -0.486,-0.3915 -0.648,-0.6615 -0.162,-0.279 -0.243,-0.5805 -0.243,-0.9045 0,-0.324 0.0765,-0.6165 0.2295,-0.8775 0.162,-0.27 0.378,-0.4815 0.648,-0.6345 0.27,-0.162 0.567,-0.243 0.891,-0.243 0.324,0 0.6165,0.081 0.8775,0.243 0.27,0.153 0.486,0.3645 0.648,0.6345 0.162,0.261 0.243,0.5535 0.243,0.8775 0,0.324 -0.081,0.6255 -0.243,0.9045 -0.162,0.27 -0.378,0.4905 -0.648,0.6615 -0.27,0.162 -0.567,0.243 -0.891,0.243 z m 11.6831,-2.565 c 0,0.792 -0.153,1.4985 -0.459,2.1195 -0.297,0.612 -0.711,1.0935 -1.242,1.4445 -0.522,0.351 -1.116,0.5266 -1.782,0.5266 -0.666,0 -1.2645,-0.1756 -1.7955,-0.5266 -0.522,-0.351 -0.936,-0.8325 -1.242,-1.4445 -0.297,-0.621 -0.4455,-1.3275 -0.4455,-2.1195 0,-0.792 0.1485,-1.494 0.4455,-2.106 0.306,-0.621 0.72,-1.107 1.242,-1.458 0.531,-0.36 1.1295,-0.54 1.7955,-0.54 0.666,0 1.26,0.18 1.782,0.54 0.531,0.351 0.945,0.837 1.242,1.458 0.306,0.612 0.459,1.314 0.459,2.106 z m -1.8225,0 c 0,-0.486 -0.072,-0.909 -0.216,-1.269 -0.135,-0.369 -0.3285,-0.657 -0.5805,-0.864 -0.252,-0.207 -0.54,-0.3105 -0.864,-0.3105 -0.333,0 -0.6255,0.1035 -0.8775,0.3105 -0.252,0.207 -0.45,0.495 -0.594,0.864 -0.135,0.36 -0.2025,0.783 -0.2025,1.269 0,0.486 0.0675,0.909 0.2025,1.269 0.144,0.36 0.342,0.6435 0.594,0.8505 0.252,0.207 0.5445,0.3105 0.8775,0.3105 0.324,0 0.6075,-0.1035 0.8505,-0.3105 0.252,-0.207 0.45,-0.4905 0.594,-0.8505 0.144,-0.369 0.216,-0.792 0.216,-1.269 z m 3.2705,3.9555 v -1.944 h 1.485 v 1.944 z m 5.7863,2.0116 c -0.693,0 -1.3185,-0.1485 -1.8765,-0.4455 -0.558,-0.297 -0.981,-0.702 -1.269,-1.215 l 1.0395,-1.0801 c 0.252,0.351 0.567,0.63 0.945,0.8371 0.378,0.207 0.7695,0.3105 1.1745,0.3105 0.324,0 0.6075,-0.0675 0.8505,-0.2025 0.252,-0.135 0.45,-0.3241 0.594,-0.5671 0.144,-0.243 0.216,-0.522 0.216,-0.837 0,-0.315 -0.0675,-0.5895 -0.2025,-0.8235 -0.135,-0.234 -0.3195,-0.414 -0.5535,-0.54 -0.234,-0.135 -0.4995,-0.2025 -0.7965,-0.2025 -0.297,0 -0.576,0.0675 -0.837,0.2025 -0.252,0.126 -0.4545,0.3105 -0.6075,0.5535 h -1.5795 l 1.107,-5.7105 h 4.725 v 1.647 h -3.4155 l -0.3915,2.1465 c 0.117,-0.108 0.279,-0.198 0.486,-0.27 0.207,-0.081 0.4635,-0.1215 0.7695,-0.1215 0.603,0 1.143,0.1305 1.62,0.3915 0.477,0.261 0.8505,0.6255 1.1205,1.0935 0.27,0.459 0.405,0.99 0.405,1.593 0,0.639 -0.153,1.2015 -0.459,1.6876 -0.306,0.495 -0.7245,0.8775 -1.2555,1.1475 -0.531,0.27 -1.134,0.405 -1.809,0.405 z"
         fill="#ffffff"
         id="path2614" /></g><g
       style="fill:none"
       id="g2642"
       transform="matrix(0.26458333,0,0,0.26458333,-196.20362,40.986828)"><path
         d="m 14.3438,70.125 c -1.2751,0 -2.3907,-0.4781 -3.3469,-1.4344 C 10.0406,67.7344 9.5625,66.6188 9.5625,65.3438 V 15.9375 c 0,-1.275 0.4781,-2.3906 1.4344,-3.3469 0.9562,-0.9562 2.0718,-1.4344 3.3469,-1.4344 h 5.1796 V 6.375 h 5.1797 v 4.7812 H 51.7969 V 6.375 h 5.1797 v 4.7812 h 5.1796 c 1.2751,0 2.3907,0.4782 3.3469,1.4344 0.9563,0.9563 1.4344,2.0719 1.4344,3.3469 v 49.4063 c 0,1.275 -0.4781,2.3906 -1.4344,3.3468 -0.9562,0.9563 -2.0718,1.4344 -3.3469,1.4344 z m 0,-4.7812 H 62.1562 V 31.0781 H 14.3438 Z m 0,-39.0469 H 62.1562 V 15.9375 H 14.3438 Z"
         fill="#ffffff"
         id="path2627" /><path
         d="m 29.856,23.1511 c 0.078,0.054 0.216,0.12 0.414,0.198 0.198,0.072 0.432,0.108 0.702,0.108 0.234,0 0.426,-0.039 0.576,-0.117 0.15,-0.084 0.264,-0.207 0.342,-0.369 0.084,-0.162 0.138,-0.372 0.162,-0.63 0.03,-0.258 0.045,-0.567 0.045,-0.927 v -3.348 h 1.242 v 3.249 c 0,0.48 -0.027,0.918 -0.081,1.314 -0.054,0.396 -0.159,0.738 -0.315,1.026 -0.156,0.288 -0.393,0.51 -0.711,0.666 -0.312,0.156 -0.729,0.234 -1.251,0.234 -0.288,0 -0.546,-0.033 -0.774,-0.099 -0.228,-0.066 -0.438,-0.165 -0.63,-0.297 z m 6.3237,-5.085 h 1.26 l 2.349,6.39 h -1.278 l -0.594,-1.593 h -2.232 l -0.585,1.593 h -1.278 z m 1.512,3.924 -0.882,-2.637 -0.918,2.637 z m 4.0398,-1.638 v 4.104 h -1.242 v -6.39 h 0.99 l 3.303,4.212 v -4.203 h 1.242 v 6.381 h -1.035 z"
         fill="#ffffff"
         id="path2629" /><path
         d="m 42.96,51.072 v 2.178 h -7.308 v -2.178 h 2.556 v -5.454 c -0.108,0.144 -0.276,0.294 -0.504,0.45 -0.228,0.144 -0.486,0.282 -0.774,0.414 -0.288,0.132 -0.576,0.24 -0.864,0.324 -0.288,0.084 -0.546,0.126 -0.774,0.126 v -2.25 c 0.216,0 0.474,-0.066 0.774,-0.198 0.312,-0.144 0.618,-0.312 0.918,-0.504 0.312,-0.192 0.576,-0.378 0.792,-0.558 0.228,-0.192 0.372,-0.342 0.432,-0.45 h 2.466 v 8.1 z"
         fill="#ffffff"
         id="path2631" /></g></g></svg>
