<?xml version="1.0" encoding="UTF-8" standalone="no"?>
<!-- Created with Inkscape (http://www.inkscape.org/) -->

<svg
   width="25.268143mm"
   height="47.644234mm"
   viewBox="0 0 25.268143 47.644234"
   version="1.1"
   id="svg1112"
   xml:space="preserve"
   xmlns="http://www.w3.org/2000/svg"
   xmlns:svg="http://www.w3.org/2000/svg"><defs
     id="defs1109" /><g
     id="layer2"
     transform="translate(-43.39953,-11.896496)"><g
       style="fill:#ffffff;fill-opacity:1"
       id="g2052"
       transform="matrix(0.26458333,0,0,0.26458333,43.329191,11.824667)"><path
         style="color:#000000;fill:#ffffff;fill-opacity:1;stroke-linecap:round;-inkscape-stroke:none"
         d="m 7.0253906,0.27148438 c -1.8343744,0 -3.5448414,0.86155542 -4.5664062,2.00390622 C 1.4374196,3.4177414 0.96526092,4.6984326 0.6796875,5.8417969 0.10854066,8.1285255 0.29492187,10.203125 0.29492188,10.203125 l -0.005859,-0.197266 v 71.445313 c 0,2.147755 -0.0151408,3.807844 0.171875,5.316406 0.18701584,1.508563 0.65771242,3.106881 1.91796882,4.259766 1.2602563,1.152884 2.8067781,1.504256 4.4003906,1.673828 1.5936124,0.169571 3.4307897,0.164062 5.8300777,0.164062 h 70.193359 c 5.311315,0 8.749407,-0.672877 10.925782,-3.095703 2.176374,-2.422825 2.033203,-5.384684 2.033203,-8.199219 V 9.4199219 c 0,-2.6829832 0.189359,-4.9511104 -1.59961,-6.9726563 C 93.267625,1.4364927 92.015226,0.88722166 90.798828,0.625 89.58243,0.36277834 88.291002,0.30273437 86.705078,0.30273438 H 82.275391 A 2.7284901,2.7284901 0 0 0 79.546875,3.03125 2.7284901,2.7284901 0 0 0 82.275391,5.7597656 h 4.429687 c 1.413774,0 2.412675,0.084397 2.945313,0.1992188 0.532638,0.114822 0.488066,0.1758514 0.425781,0.1054687 -0.12457,-0.1407653 0.228515,0.7864672 0.228515,3.3554688 V 81.570312 c 0,2.766461 -0.216417,4.087013 -0.634765,4.552735 -0.418348,0.465722 -2.094613,1.287109 -6.867188,1.287109 H 12.609375 c -2.389907,0 -4.1492283,-0.01743 -5.2519531,-0.134765 C 6.254697,87.158053 6.0027624,86.947305 6.0625,87.001953 6.1222376,87.056601 5.991677,87.021123 5.8769531,86.095703 5.7622293,85.170284 5.7460937,83.597563 5.7460937,81.451172 V 9.90625 l -0.00781,-0.097656 c 0,0 -0.067417,-1.4284134 0.2363282,-2.6445313 0.1518724,-0.6080589 0.3996213,-1.0787834 0.5527343,-1.25 C 6.6804568,5.7428459 6.6021823,5.7285156 7.0253906,5.7285156 H 12.929688 A 2.7284901,2.7284901 0 0 0 15.658203,3 2.7284901,2.7284901 0 0 0 12.929688,0.27148438 Z"
         id="path2037" /><path
         style="color:#000000;fill:#ffffff;fill-opacity:1;stroke-linecap:round;-inkscape-stroke:none"
         d="m 26.912109,13.355469 c -4.521611,0 -8.232422,3.767356 -8.232422,8.27539 v 14.550782 c 0,4.508057 3.710908,8.273437 8.232422,8.273437 h 40.210938 c 4.521494,0 8.232422,-3.765284 8.232422,-8.273437 V 21.630859 c 0,-4.508131 -3.710831,-8.27539 -8.232422,-8.27539 z m 0,7.361328 h 40.210938 c 0.506603,0 0.873047,0.346999 0.873047,0.914062 v 14.550782 c 0,0.567241 -0.366346,0.914062 -0.873047,0.914062 H 26.912109 c -0.506881,0 -0.873047,-0.346724 -0.873047,-0.914062 V 21.630859 c 0,-0.56716 0.366264,-0.914062 0.873047,-0.914062 z"
         id="path2039" /><path
         d="m 36.4388,32.5227 v 1.6335 h -5.481 v -1.6335 h 1.917 v -4.0905 c -0.081,0.108 -0.207,0.2205 -0.378,0.3375 -0.171,0.108 -0.3645,0.2115 -0.5805,0.3105 -0.216,0.099 -0.432,0.18 -0.648,0.243 -0.216,0.063 -0.4095,0.0945 -0.5805,0.0945 v -1.6875 c 0.162,0 0.3555,-0.0495 0.5805,-0.1485 0.234,-0.108 0.4635,-0.234 0.6885,-0.378 0.234,-0.144 0.432,-0.2835 0.594,-0.4185 0.171,-0.144 0.279,-0.2565 0.324,-0.3375 h 1.8495 v 6.075 z m 7.9803,-1.566 c 0,-0.603 -0.1485,-1.143 -0.4455,-1.62 -0.288,-0.486 -0.684,-0.8685 -1.188,-1.1475 -0.504,-0.288 -1.0755,-0.432 -1.7145,-0.432 -0.297,0 -0.576,0.045 -0.837,0.135 -0.261,0.081 -0.4905,0.2025 -0.6885,0.3645 -0.198,0.153 -0.36,0.3375 -0.486,0.5535 0.018,-0.576 0.108,-1.0665 0.27,-1.4715 0.162,-0.414 0.3915,-0.729 0.6885,-0.945 0.297,-0.216 0.648,-0.324 1.053,-0.324 0.396,0 0.765,0.099 1.107,0.297 0.342,0.189 0.621,0.45 0.837,0.783 l 1.0395,-1.134 c -0.351,-0.486 -0.783,-0.8595 -1.296,-1.1205 -0.504,-0.261 -1.0575,-0.3915 -1.6605,-0.3915 -0.756,0 -1.413,0.207 -1.971,0.621 -0.558,0.405 -0.99,1.0125 -1.296,1.8225 -0.297,0.801 -0.4455,1.782 -0.4455,2.943 0,0.918 0.144,1.7055 0.432,2.3625 0.288,0.657 0.693,1.161 1.215,1.512 0.531,0.351 1.1565,0.5266 1.8765,0.5266 0.666,0 1.26,-0.1486 1.782,-0.4456 0.531,-0.297 0.9495,-0.6975 1.2555,-1.2015 0.315,-0.504 0.4725,-1.0665 0.4725,-1.6875 z m -3.51,1.809 c -0.306,0 -0.594,-0.081 -0.864,-0.243 -0.27,-0.171 -0.486,-0.3915 -0.648,-0.6615 -0.162,-0.279 -0.243,-0.5805 -0.243,-0.9045 0,-0.324 0.0765,-0.6165 0.2295,-0.8775 0.162,-0.27 0.378,-0.4815 0.648,-0.6345 0.27,-0.162 0.567,-0.243 0.891,-0.243 0.324,0 0.6165,0.081 0.8775,0.243 0.27,0.153 0.486,0.3645 0.648,0.6345 0.162,0.261 0.243,0.5535 0.243,0.8775 0,0.324 -0.081,0.6255 -0.243,0.9045 -0.162,0.27 -0.378,0.4905 -0.648,0.6615 -0.27,0.162 -0.567,0.243 -0.891,0.243 z m 11.6832,-2.565 c 0,0.792 -0.153,1.4985 -0.459,2.1195 -0.297,0.612 -0.711,1.0935 -1.242,1.4445 -0.522,0.351 -1.116,0.5266 -1.782,0.5266 -0.666,0 -1.2645,-0.1756 -1.7955,-0.5266 -0.522,-0.351 -0.936,-0.8325 -1.242,-1.4445 -0.297,-0.621 -0.4455,-1.3275 -0.4455,-2.1195 0,-0.792 0.1485,-1.494 0.4455,-2.106 0.306,-0.621 0.72,-1.107 1.242,-1.458 0.531,-0.36 1.1295,-0.54 1.7955,-0.54 0.666,0 1.26,0.18 1.782,0.54 0.531,0.351 0.945,0.837 1.242,1.458 0.306,0.612 0.459,1.314 0.459,2.106 z m -1.8225,0 c 0,-0.486 -0.072,-0.909 -0.216,-1.269 -0.135,-0.369 -0.3285,-0.657 -0.5805,-0.864 -0.252,-0.207 -0.54,-0.3105 -0.864,-0.3105 -0.333,0 -0.6255,0.1035 -0.8775,0.3105 -0.252,0.207 -0.45,0.495 -0.594,0.864 -0.135,0.36 -0.2025,0.783 -0.2025,1.269 0,0.486 0.0675,0.909 0.2025,1.269 0.144,0.36 0.342,0.6435 0.594,0.8505 0.252,0.207 0.5445,0.3105 0.8775,0.3105 0.324,0 0.6075,-0.1035 0.8505,-0.3105 0.252,-0.207 0.45,-0.4905 0.594,-0.8505 0.144,-0.369 0.216,-0.792 0.216,-1.269 z m 3.2705,3.9555 v -1.944 h 1.485 v 1.944 z m 5.7863,2.0116 c -0.693,0 -1.3185,-0.1485 -1.8765,-0.4455 -0.558,-0.297 -0.981,-0.702 -1.269,-1.215 l 1.0395,-1.0801 c 0.252,0.351 0.567,0.63 0.945,0.8371 0.378,0.207 0.7695,0.3105 1.1745,0.3105 0.324,0 0.6075,-0.0675 0.8505,-0.2025 0.252,-0.135 0.45,-0.3241 0.594,-0.5671 0.144,-0.243 0.216,-0.522 0.216,-0.837 0,-0.315 -0.0675,-0.5895 -0.2025,-0.8235 -0.135,-0.234 -0.3195,-0.414 -0.5535,-0.54 -0.234,-0.135 -0.4995,-0.2025 -0.7965,-0.2025 -0.297,0 -0.576,0.0675 -0.837,0.2025 -0.252,0.126 -0.4545,0.3105 -0.6075,0.5535 h -1.5795 l 1.107,-5.7105 h 4.725 v 1.647 h -3.4155 l -0.3915,2.1465 c 0.117,-0.108 0.279,-0.198 0.486,-0.27 0.207,-0.081 0.4635,-0.1215 0.7695,-0.1215 0.603,0 1.143,0.1305 1.62,0.3915 0.477,0.261 0.8505,0.6255 1.1205,1.0935 0.27,0.459 0.405,0.99 0.405,1.593 0,0.639 -0.153,1.2015 -0.459,1.6876 -0.306,0.495 -0.7245,0.8775 -1.2555,1.1475 -0.531,0.27 -1.134,0.405 -1.809,0.405 z"
         fill="#ffffff"
         id="path2041"
         style="fill:#ffffff;fill-opacity:1" /></g><g
       style="fill:#ffffff;fill-opacity:1;stroke:none"
       id="g2069"
       transform="matrix(0.26458333,0,0,0.26458333,45.372018,40.986828)"><path
         d="m 14.3438,70.125 c -1.2751,0 -2.3907,-0.4781 -3.3469,-1.4344 C 10.0406,67.7344 9.5625,66.6188 9.5625,65.3438 V 15.9375 c 0,-1.275 0.4781,-2.3906 1.4344,-3.3469 0.9562,-0.9562 2.0718,-1.4344 3.3469,-1.4344 h 5.1796 V 6.375 h 5.1797 v 4.7812 H 51.7969 V 6.375 h 5.1797 v 4.7812 h 5.1796 c 1.2751,0 2.3907,0.4782 3.3469,1.4344 0.9563,0.9563 1.4344,2.0719 1.4344,3.3469 v 49.4063 c 0,1.275 -0.4781,2.3906 -1.4344,3.3468 -0.9562,0.9563 -2.0718,1.4344 -3.3469,1.4344 z m 0,-4.7812 H 62.1562 V 31.0781 H 14.3438 Z m 0,-39.0469 H 62.1562 V 15.9375 H 14.3438 Z"
         fill="#ffffff"
         id="path2054"
         style="fill:#ffffff;fill-opacity:1;stroke:none" /><path
         d="m 29.856,23.1511 c 0.078,0.054 0.216,0.12 0.414,0.198 0.198,0.072 0.432,0.108 0.702,0.108 0.234,0 0.426,-0.039 0.576,-0.117 0.15,-0.084 0.264,-0.207 0.342,-0.369 0.084,-0.162 0.138,-0.372 0.162,-0.63 0.03,-0.258 0.045,-0.567 0.045,-0.927 v -3.348 h 1.242 v 3.249 c 0,0.48 -0.027,0.918 -0.081,1.314 -0.054,0.396 -0.159,0.738 -0.315,1.026 -0.156,0.288 -0.393,0.51 -0.711,0.666 -0.312,0.156 -0.729,0.234 -1.251,0.234 -0.288,0 -0.546,-0.033 -0.774,-0.099 -0.228,-0.066 -0.438,-0.165 -0.63,-0.297 z m 6.3237,-5.085 h 1.26 l 2.349,6.39 h -1.278 l -0.594,-1.593 h -2.232 l -0.585,1.593 h -1.278 z m 1.512,3.924 -0.882,-2.637 -0.918,2.637 z m 4.0398,-1.638 v 4.104 h -1.242 v -6.39 h 0.99 l 3.303,4.212 v -4.203 h 1.242 v 6.381 h -1.035 z"
         fill="#ffffff"
         id="path2056"
         style="fill:#ffffff;fill-opacity:1;stroke:none" /><path
         d="m 39.216,55.932 c -0.924,0 -1.758,-0.198 -2.502,-0.594 -0.744,-0.396 -1.308,-0.936 -1.692,-1.62 l 1.386,-1.44 c 0.336,0.468 0.756,0.84 1.26,1.116 0.504,0.276 1.026,0.414 1.566,0.414 0.432,0 0.81,-0.09 1.134,-0.27 0.336,-0.18 0.6,-0.432 0.792,-0.756 0.192,-0.324 0.288,-0.696 0.288,-1.116 0,-0.42 -0.09,-0.786 -0.27,-1.098 -0.18,-0.312 -0.426,-0.552 -0.738,-0.72 -0.312,-0.18 -0.666,-0.27 -1.062,-0.27 -0.396,0 -0.768,0.09 -1.116,0.27 -0.336,0.168 -0.606,0.414 -0.81,0.738 h -2.106 l 1.476,-7.614 h 6.3 v 2.196 h -4.554 l -0.522,2.862 c 0.156,-0.144 0.372,-0.264 0.648,-0.36 0.276,-0.108 0.618,-0.162 1.026,-0.162 0.804,0 1.524,0.174 2.16,0.522 0.636,0.348 1.134,0.834 1.494,1.458 0.36,0.612 0.54,1.32 0.54,2.124 0,0.852 -0.204,1.602 -0.612,2.25 -0.408,0.66 -0.966,1.17 -1.674,1.53 -0.708,0.36 -1.512,0.54 -2.412,0.54 z"
         fill="#ffffff"
         id="path2058"
         style="fill:#ffffff;fill-opacity:1;stroke:none" /></g></g></svg>
